<svg xmlns="http://www.w3.org/2000/svg" width="125" height="77" xmlns:v="https://vecta.io/nano"><path d="M72.751 31.225l7.191-2.68-7.191-2.757v-3.752l12.316 4.977v3.063l-12.316 4.977v-3.829zM4.743 54.964C2.142 54.964 0 53.662 0 50.752v-.153c0-3.523 3.06-4.748 6.808-4.748h1.759v-.689c0-1.455-.612-2.297-2.142-2.297-1.377 0-2.065.766-2.142 1.838H.459c.306-3.216 2.83-4.748 6.196-4.748 3.442 0 5.967 1.455 5.967 5.054v9.649H8.721v-1.685c-.765 1.072-2.065 1.991-3.978 1.991zm3.825-5.054v-1.378H6.961c-1.989 0-2.983.536-2.983 1.838v.153c0 .995.612 1.685 1.989 1.685 1.377-.077 2.601-.842 2.601-2.297zm13.158 5.054c-3.978 0-6.885-2.45-6.885-7.351v-.23c0-4.901 3.06-7.505 6.885-7.505 3.289 0 5.967 1.685 6.273 5.437h-3.825c-.229-1.378-.994-2.297-2.371-2.297-1.683 0-2.907 1.378-2.907 4.212v.459c0 2.91 1.071 4.212 2.907 4.212 1.377 0 2.371-.995 2.601-2.604h3.672c-.229 3.369-2.448 5.667-6.349 5.667zm14.994 0c-3.978 0-6.885-2.45-6.885-7.351v-.23c0-4.901 3.06-7.505 6.885-7.505 3.289 0 5.967 1.685 6.273 5.437h-3.825c-.229-1.378-.994-2.297-2.371-2.297-1.683 0-2.907 1.378-2.907 4.212v.459c0 2.91 1.071 4.212 2.907 4.212 1.377 0 2.371-.995 2.601-2.604h3.672c-.229 3.369-2.448 5.667-6.349 5.667zm15.07 0c-4.131 0-6.961-2.45-6.961-7.275v-.306c0-4.824 2.983-7.505 6.885-7.505 3.595 0 6.579 1.991 6.579 6.815v1.761h-9.409c.153 2.604 1.3 3.599 2.983 3.599 1.53 0 2.371-.842 2.677-1.838h3.748c-.459 2.68-2.754 4.748-6.502 4.748zm-2.83-9.189h5.355c-.076-2.144-1.071-3.063-2.677-3.063-1.224.077-2.371.766-2.677 3.063zm11.781-5.514h4.054v2.144c.688-1.378 2.142-2.45 4.36-2.45 2.601 0 4.36 1.608 4.36 5.054v9.649h-4.054v-9.036c0-1.685-.688-2.45-2.142-2.45-1.377 0-2.524.842-2.524 2.68v8.806h-4.054V40.261h0zm20.196-4.365v4.365h2.754v2.986h-2.754v6.815c0 1.072.459 1.608 1.453 1.608.612 0 .994-.077 1.377-.23v3.14c-.459.153-1.3.306-2.295.306-3.136 0-4.59-1.455-4.59-4.365v-7.275h-1.683v-2.986h1.683v-2.68l4.054-1.685zm17.901 18.761h-3.978v-2.144c-.688 1.378-2.065 2.45-4.207 2.45-2.601 0-4.513-1.608-4.513-4.977v-9.725h4.054v9.189c0 1.685.688 2.45 2.065 2.45s2.524-.919 2.524-2.68v-8.959h4.054v14.396zm2.983-14.396h4.054v2.68c.841-1.914 2.218-2.833 4.36-2.833v3.982c-2.754 0-4.36.842-4.36 3.216v7.428h-4.054V40.261zm16.6 14.703c-4.131 0-6.961-2.45-6.961-7.275v-.306c0-4.824 2.983-7.505 6.885-7.505 3.595 0 6.579 1.991 6.579 6.815v1.761h-9.333c.153 2.604 1.3 3.599 2.983 3.599 1.53 0 2.371-.842 2.677-1.838H125c-.612 2.68-2.83 4.748-6.579 4.748zm-2.907-9.189h5.431c-.076-2.144-1.071-3.063-2.677-3.063-1.224.077-2.371.766-2.754 3.063z" fill="#6c7285"/></svg>