<?xml version="1.0" encoding="UTF-8"?>
<svg width="125px" height="77px" viewBox="0 0 125 77" version="1.1" xmlns="http://www.w3.org/2000/svg" xmlns:xlink="http://www.w3.org/1999/xlink">
    <title>logo/apple</title>
    <g id="logo/apple" stroke="none" stroke-width="1" fill="none" fill-rule="evenodd">
        <path d="M82.0428759,30.3346168 C81.7454118,30.5656399 76.4936326,33.5278695 76.4936326,40.1145948 C76.4936326,47.7332233 83.1763165,50.4284928 83.3763355,50.4952329 C83.3455633,50.659516 82.3146965,54.1864686 79.852925,57.7801613 C77.6578453,60.9426109 75.3653206,64.0999267 71.8778109,64.0999267 C68.3903013,64.0999267 67.4927804,62.0720572 63.4667582,62.0720572 C59.5433098,62.0720572 58.1483059,64.1666667 54.9582603,64.1666667 C51.7682147,64.1666667 49.542363,61.240374 46.9831463,57.6466813 C44.0187631,53.4266593 41.6236645,46.8707371 41.6236645,40.6485149 C41.6236645,30.6683168 48.1063296,25.3753209 54.4864208,25.3753209 C57.8764853,25.3753209 60.7023939,27.6034103 62.8308005,27.6034103 C64.8566334,27.6034103 68.0159068,25.2418409 71.8726822,25.2418409 C73.3343591,25.2418409 78.5861384,25.3753209 82.0428759,30.3346168 Z M70.0417397,21.016685 C71.6367625,19.1222956 72.7650744,16.493766 72.7650744,13.8652365 C72.7650744,13.5007334 72.7343023,13.1310964 72.6676293,12.8333333 C70.0725118,12.9308764 66.98504,14.5634397 65.1233253,16.7247891 C63.6616484,18.3881555 62.2974167,21.016685 62.2974167,23.6811514 C62.2974167,24.0815915 62.3640897,24.4820315 62.3948618,24.6103777 C62.5589799,24.6411808 62.8256719,24.6771177 63.0923638,24.6771177 C65.4207894,24.6771177 68.3492717,23.1164283 70.0417397,21.016685 Z" id="Shape" fill="#6C7285" fill-rule="nonzero"></path>
    </g>
</svg>