<svg xmlns="http://www.w3.org/2000/svg" width="125" height="77" xmlns:v="https://vecta.io/nano"><path d="M62.5 5.615c18.14 0 32.853 14.728 32.853 32.885S80.646 71.385 62.5 71.385 29.647 56.664 29.647 38.5 44.354 5.615 62.5 5.615zm-.013 4.056c-15.93 0-28.841 12.93-28.841 28.869s12.911 28.869 28.841 28.869S91.327 54.485 91.327 38.54 78.417 9.67 62.487 9.67zm-7.564 17.592c4.15 0 6.965 2.699 6.965 6.268 0 3.068-2.164 4.451-2.164 4.451s2.815 1.383 2.815 4.99c0 4.095-3.177 6.682-7.314 6.682h-9.103V27.262zm24.993-.04v5.175h-5.249V49.58h-5.373V32.397h-5.031v-5.175h15.653zM53.851 40.469h-2.69v4.352h2.815c1.671 0 2.618-.836 2.618-2.153 0-1.218-.829-2.199-2.743-2.199zm0-8.835h-2.69v4.352h2.815c1.671 0 2.618-.836 2.618-2.153 0-1.218-.829-2.199-2.743-2.199z" fill="#6c7285"/></svg>