<svg xmlns="http://www.w3.org/2000/svg" width="125" height="77" xmlns:v="https://vecta.io/nano"><path d="M45.175 28.646c-6.273 0-10.119 4.904-10.119 9.854 0 5.959 4.854 9.854 10.165 9.854 3.526 0 6.868-1.558 9.707-4.079v7.379c-2.976 1.788-7.051 2.888-10.211 2.888-9.066 0-16.666-7.379-16.666-16.042 0-9.166 7.646-16.041 16.712-16.041 3.48 0 7.555 1.054 10.211 2.383v7.242c-3.342-2.2-6.731-3.438-9.799-3.438M74.2 54.542c-9.112 0-16.804-7.104-16.804-16.042 0-9.029 7.647-16.042 17.216-16.042 3.48 0 7.784.917 10.44 2.154v7.196c-3.022-1.742-6.914-3.163-10.302-3.163-6.273 0-10.348 4.904-10.348 9.854 0 5.821 4.808 10.037 10.44 10.037 1.19 0 2.335-.092 3.8-.642v-5.775h-5.128v-6.096h11.721V52.25c-3.343 1.513-7.097 2.292-11.035 2.292m16.156-.642h6.593V23.1h-6.593v30.8z" fill="#6c7285" fill-rule="evenodd"/></svg>