<?xml version="1.0" encoding="UTF-8"?>
<svg width="98px" height="34px" viewBox="0 0 98 34" version="1.1" xmlns="http://www.w3.org/2000/svg" xmlns:xlink="http://www.w3.org/1999/xlink">
    <title>GDPR</title>
    <g id="assets" stroke="none" stroke-width="1" fill="none" fill-rule="evenodd">
        <g id="compliance" transform="translate(-0, 0)" fill="#9EA2BD" fill-rule="nonzero">
            <path d="M17.1497947,29.2397028 L17.6757356,30.9329174 L19.373505,30.9333975 L19.440616,31.1326134 L18.0617668,32.1793567 L18.5892547,33.8788164 L18.4162174,34 L17.0429131,32.9552604 L15.6715862,34 L15.4984809,33.8788526 L16.0240594,32.180317 L14.6461706,31.1335737 L14.7132815,30.9343578 L16.411051,30.9338776 L16.937947,29.2397028 L17.1497947,29.2397028 Z M25.804786,27.9145371 L26.3297503,29.6077353 L28.0284801,29.6082155 L28.0956283,29.807403 L26.7167419,30.8551349 L27.2442248,32.5536182 L27.0711925,32.674818 L25.6978882,31.6300783 L24.3245839,32.674818 L24.1515516,32.5536182 L24.6780742,30.8551349 L23.3001853,29.8083916 L23.3672963,29.6091757 L25.066026,29.6086956 L25.5929221,27.9145371 L25.804786,27.9145371 Z M8.49578499,27.9135768 L9.02172078,29.6077353 L10.7194902,29.6082155 L10.7866012,29.8074314 L9.40775206,30.8541747 L9.93617892,32.5526055 L9.76316289,32.6738577 L8.38889835,31.6291181 L7.01655436,32.6738577 L6.84353833,32.5526055 L7.37100491,30.8541747 L5.99311606,29.8074314 L6.06022704,29.6082155 L7.7570362,29.6077353 L8.28393226,27.9135768 L8.49578499,27.9135768 Z M3.83557778,21.95031 L4.36053705,23.6444162 L6.05830648,23.6448964 L6.12544583,23.8440907 L4.74752861,24.8908555 L5.27501146,26.5893388 L5.10197916,26.7105386 L3.72771462,25.6657989 L2.35537063,26.7105386 L2.18233833,26.5893388 L2.7088609,24.8908555 L1.33097205,23.8441123 L1.39808303,23.6448964 L3.09585247,23.6444162 L3.62372506,21.9502053 L3.83557778,21.95031 Z M30.2471997,21.2493835 L30.4640431,21.9483534 L30.9899738,23.6434559 L32.6887035,23.6439361 L32.7558145,23.843152 L31.3769654,24.8898953 L31.9044482,26.5883785 L31.7314159,26.7095783 L30.3581116,25.6648387 L28.9848074,26.7095783 L28.8117914,26.5883262 L29.3392579,24.8898953 L27.9613691,23.843152 L28.0284801,23.6439361 L29.7262495,23.6434559 L30.2471997,21.982177 L30.2471997,21.2493835 Z M20.5392811,13.279332 C20.672496,13.279332 20.8000885,13.3330235 20.8926188,13.4276598 L21.8571078,14.398875 C22.0511555,14.5961443 22.0522455,14.9122422 21.7799587,15.1445259 L21.8580716,15.1113886 L16.61946,20.4372414 C16.4185628,20.6213274 16.1600103,20.7299944 15.8819384,20.7448603 L15.4315686,20.7448603 C15.1874108,20.7448603 14.8612671,20.60788 14.6898131,20.4331498 L12.224115,17.9203795 C12.0325857,17.7217947 12.0331283,17.4070761 12.2259047,17.2085769 L13.1954848,16.2245983 C13.2886186,16.1293496 13.4162111,16.0756581 13.549426,16.0756581 C13.6826409,16.0756581 13.8102335,16.1293496 13.9029657,16.2241897 L15.4780845,17.8185182 C15.5853706,17.9278544 15.7617461,17.9278544 15.8691078,17.8184413 L20.1853398,13.4282722 C20.2784736,13.3330235 20.4060661,13.279332 20.5392811,13.279332 Z M2.50367382,14.6589281 L3.02863309,16.3530343 L4.7273628,16.3535144 L4.79447378,16.5527303 L3.41562465,17.5994736 L3.94311255,19.2989333 L3.7700752,19.4201169 L2.39581066,18.3753773 L1.02346667,19.4201169 L0.850429324,19.2989333 L1.37695694,17.5994736 L0,16.5527087 L0.067139348,16.3535144 L1.76490878,16.3530343 L2.29180484,14.6588757 L2.50367382,14.6589281 Z M31.7959582,14.6589281 L32.3209175,16.3530343 L34.0196472,16.3535144 L34.0867582,16.5527303 L32.707909,17.5994736 L33.236341,19.298881 L33.0633199,19.4201169 L31.6890553,18.3753773 L30.3167113,19.4201169 L30.143674,19.2989333 L30.6702016,17.5994736 L29.2923128,16.5527303 L29.3594237,16.3535144 L31.0571932,16.3530343 L31.5840892,14.6588757 L31.7959582,14.6589281 Z M3.83958687,7.05724883 L3.83910673,7.77104024 L4.36053705,9.44960414 L6.05830648,9.45008427 L6.1254085,9.64930698 L4.74752861,10.6950832 L5.27501651,12.3945429 L5.10197916,12.5157265 L3.7286749,11.4709869 L2.35537063,12.5157265 L2.18233329,12.3945429 L2.7088609,10.6950832 L1.33097205,9.64833989 L1.39808303,9.449124 L3.09585247,9.44864386 L3.62275358,7.75542933 L3.83958687,7.05724883 Z M30.464033,7.75542933 L30.9899738,9.44864386 L32.6887035,9.449124 L32.7558145,9.64833989 L31.3769654,10.6950832 L31.9044533,12.3945429 L31.7314159,12.5157265 L30.3571514,11.4709869 L28.9848074,12.5157265 L28.8117863,12.3944906 L29.3392579,10.6950832 L27.9613691,9.64833989 L28.0284801,9.449124 L29.7252892,9.44864386 L30.2521903,7.75542933 L30.464033,7.75542933 Z M9.71984203,2.37380432 L9.78610113,2.4635902 L9.82576336,2.45182041 L10.3517042,4.14503493 L12.0504339,4.14551507 L12.1175449,4.34473097 L10.7386957,5.39147426 L11.2661836,7.09093402 L11.0931463,7.21211758 L9.71984203,6.16737793 L8.34752641,7.21211758 L8.17446575,7.09091777 L8.70098832,5.39243453 L7.32306217,4.34470261 L7.39021045,4.14551507 L9.08797988,4.14503493 L9.61488099,2.45182041 L9.65262266,2.46262993 L9.71984203,2.37380432 Z M24.4718893,2.45176806 L24.9988067,4.14503493 L26.6965761,4.14551507 L26.7636871,4.34473097 L25.3848379,5.39147426 L25.9123258,7.09093402 L25.7392885,7.21211758 L24.3659842,6.16737793 L22.99268,7.21211758 L22.8196639,7.09086542 L23.3471305,5.39243453 L21.9692044,4.34470261 L22.0363526,4.14551507 L23.7331618,4.14503493 L24.2600629,2.45182041 L24.4718893,2.45176806 Z M17.0438734,0 L17.1110928,0.0897858835 L17.1497998,0.0780323373 L17.6757356,1.77219089 L19.373505,1.77267103 L19.440616,1.97188692 L18.0617668,3.01863021 L18.5892497,4.71711344 L18.4161801,4.8382849 L17.0429131,3.79261334 L15.6715862,4.83730982 L15.4984809,4.71620554 L16.0240594,3.01766994 L14.6461706,1.97092664 L14.7132815,1.77171075 L16.411051,1.77123061 L16.9389286,0.0779637361 L16.976654,0.0897858835 L17.0438734,0 Z M45.3960703,22.7853262 C46.967527,22.7853262 48.1144333,23.7939656 48.2057249,25.1739758 L48.2057249,25.2519725 L46.6768119,25.2519725 L46.6732666,25.2129741 C46.581975,24.5597516 46.079428,24.1006345 45.3969567,24.1006345 C44.5265842,24.1006345 43.993902,24.8451487 43.993902,26.0656201 C43.993902,27.303818 44.5256979,28.0518775 45.400502,28.0518775 C46.0847459,28.0518775 46.5651348,27.6237818 46.6732666,26.9794226 L46.6821299,26.9315609 L48.2092702,26.9315609 L48.2092702,27.0006944 C48.10557,28.3939994 46.9976621,29.3671858 45.3960703,29.3671858 C43.5259217,29.3680721 42.3754701,28.113034 42.3754701,26.078915 C42.3754701,24.0359327 43.5223764,22.7853262 45.3960703,22.7853262 Z M52.1472182,22.7853262 C54.0217985,22.7853262 55.2245434,24.0439096 55.2245434,26.0700517 C55.2245434,28.1086023 54.0262301,29.3671858 52.1472182,29.3671858 C50.2611157,29.3680721 49.0663478,28.1086023 49.0663478,26.078915 C49.0663478,24.044796 50.2690927,22.7853262 52.1472182,22.7853262 Z M58.2150085,22.9537282 L59.7253086,27.1903682 L59.807737,27.1903682 L61.3144918,22.9537282 L63.1181659,22.9537282 L63.1181659,29.1987838 L61.7248609,29.1987838 L61.7248609,25.2227237 L61.6335693,25.2227237 L60.2145608,29.1996701 L59.3105079,29.1996701 L57.8906131,25.2227237 L57.8037531,25.2227237 L57.8037531,29.1996701 L56.4060164,29.1996701 L56.4060164,22.9537282 L58.2150085,22.9537282 Z M67.2821272,22.9537282 C68.6798639,22.9537282 69.5794851,23.8285323 69.5794851,25.1651125 C69.5794851,26.5123286 68.6798639,27.3685198 67.2821272,27.3685198 L66.1830825,27.3685198 L66.1830825,29.1987838 L64.5938993,29.1987838 L64.5938993,22.9537282 L67.2821272,22.9537282 Z M72.3368464,22.9537282 L72.3368464,27.9224738 L74.9896212,27.9224738 L74.9896212,29.1987838 L70.7485496,29.1987838 L70.7485496,22.9537282 L72.3368464,22.9537282 Z M77.7372329,22.9537282 L77.7372329,29.1987838 L76.1498224,29.1987838 L76.1498224,22.9537282 L77.7372329,22.9537282 Z M82.8353822,22.9537282 L84.9350893,29.1987838 L83.2687958,29.1987838 L82.8832438,27.8276369 L80.8446932,27.8276369 L80.4600275,29.1987838 L78.793734,29.1987838 L80.8925548,22.9537282 L82.8353822,22.9537282 Z M87.2501738,22.9537282 L89.855087,26.4680122 L89.9330837,26.4680122 L89.9330837,22.9537282 L91.4389522,22.9537282 L91.4389522,29.1987838 L90.1803687,29.1987838 L87.565706,25.649933 L87.4877092,25.649933 L87.4877092,29.1987838 L85.9827271,29.1987838 L85.9827271,22.9537282 L87.2501738,22.9537282 Z M97.7620044,22.9546145 L97.7620044,24.2309245 L95.957444,24.2309245 L95.957444,29.1987838 L94.3735787,29.1987838 L94.3735787,24.2309245 L92.5734499,24.2309245 L92.5734499,22.9546145 L97.7620044,22.9546145 Z M52.1472182,24.1006345 C51.2697551,24.1006345 50.6803481,24.8717385 50.6803481,26.0700517 C50.6803481,27.2816598 51.2600055,28.0518775 52.1472182,28.0518775 C53.0220224,28.0518775 53.6061114,27.2816598 53.6061114,26.078915 C53.6061114,24.8717385 53.021136,24.1006345 52.1472182,24.1006345 Z M81.9056258,24.3301931 L81.8231975,24.3301931 L81.1655433,26.6842759 L82.56328,26.6842759 L81.9056258,24.3301931 Z M66.9010068,24.1706543 L66.1830825,24.1706543 L66.1830825,26.1737519 L66.9010068,26.1737519 C67.5763875,26.1737519 67.9734617,25.823653 67.9734617,25.1739758 C67.9734617,24.5163216 67.5763875,24.1706543 66.9010068,24.1706543 Z M47.13327,7.28081917 C49.3313594,7.28081917 50.6856661,8.35681937 51.4230896,9.59767628 L49.2560216,10.7330603 C48.8491978,10.0754062 48.0825255,9.55247364 47.1341563,9.55247364 C45.4926799,9.55247364 44.3351377,10.8075118 44.3351377,12.4374659 C44.3351377,14.0656475 45.4935662,15.3206856 47.13327,15.3206856 C47.9158962,15.3206856 48.6231846,15.0521287 49.0300084,14.7233016 L49.0300084,13.8857232 L46.7273325,13.8857232 L46.7273325,11.7496767 L51.5728788,11.7496767 L51.5728788,15.6495127 C50.4897879,16.8300994 49.0308947,17.5923401 47.1341563,17.5923401 C44.1392596,17.5923401 41.7018621,15.6051964 41.7018621,12.4374659 C41.7009757,9.2688492 44.1392596,7.28081917 47.13327,7.28081917 Z M57.3074103,7.44478955 C60.4671638,7.44478955 62.7405909,9.32823307 62.7405909,12.4215121 C62.7405909,15.5147911 60.4671638,17.4133021 57.3224779,17.4133021 L53.0938148,17.4133021 L53.0938148,7.44478955 L57.3074103,7.44478955 Z M69.0592115,7.44478955 C71.3175711,7.44478955 72.5513374,8.95420334 72.5513374,10.7631954 C72.5513374,12.5562337 71.3175711,14.0355124 69.0592115,14.0355124 L66.621814,14.0355124 L66.621814,17.4133021 L64.0337411,17.4133021 L64.0337411,7.44478955 L69.0592115,7.44478955 Z M78.7370091,7.44478955 C80.9634609,7.44478955 82.2273623,8.90988702 82.2273623,10.7631954 C82.2273623,12.4968498 81.159339,13.4239472 80.2260374,13.7518879 L82.2734513,17.4133021 L79.3078033,17.4133021 L77.6228968,14.0363987 L76.2978389,14.0363987 L76.2978389,17.4133021 L73.709766,17.4133021 L73.709766,7.44478955 L78.7370091,7.44478955 Z M57.3224779,9.68719524 L55.6810014,9.68719524 L55.6810014,15.1717828 L57.3074103,15.1708964 C59.0676545,15.1708964 60.0904751,13.9016771 60.0904751,12.4215121 C60.0904751,10.8828495 59.1580598,9.68719524 57.3224779,9.68719524 Z M68.7126579,9.61274383 L66.6227004,9.61274383 L66.6227004,11.8542632 L68.7135443,11.8542632 C69.4057651,11.8542632 69.9180618,11.4199633 69.9180618,10.7481279 C69.9180618,10.0603386 69.4057651,9.61274383 68.7126579,9.61274383 Z M78.3443665,9.61274383 L76.2987253,9.61274383 L76.2987253,11.8542632 L78.3452528,11.8542632 C79.0224062,11.8542632 79.594973,11.4199633 79.594973,10.7330603 C79.5940867,10.0452711 79.0224062,9.61274383 78.3443665,9.61274383 Z" id="GDPR"></path>
        </g>
    </g>
</svg>