<?xml version="1.0" encoding="UTF-8"?>
<svg width="73px" height="34px" viewBox="0 0 73 34" version="1.1" xmlns="http://www.w3.org/2000/svg" xmlns:xlink="http://www.w3.org/1999/xlink">
    <title>hipaa</title>
    <g id="assets" stroke="none" stroke-width="1" fill="none" fill-rule="evenodd">
        <g id="compliance" transform="translate(-273, 0)" fill="#9EA2BD">
            <path d="M292.771706,26.7651588 C292.937399,26.7655434 292.979014,27.5056205 292.957937,30.0930826 C292.925476,34.1200065 292.926629,34.092468 292.795476,33.9610834 C292.737399,33.9030834 292.660552,32.2602369 292.624322,30.3101596 C292.612278,29.6605235 292.604766,29.121037 292.602453,28.6756679 L292.602396,28.1536491 C292.608869,27.1032444 292.660117,26.7650562 292.771706,26.7651588 Z M289.932475,23.1743888 C290.176937,22.5881579 290.209167,22.5700041 290.699398,22.7410041 C291.199783,22.9157734 291.205629,22.9307734 290.962552,23.4016966 C290.825783,23.6667736 290.713706,24.0322352 290.713706,24.2139275 C290.713706,24.6753891 291.611398,25.3826201 292.35886,25.5103893 C294.479784,25.8724663 294.920014,26.1971587 294.918404,27.3967743 C294.917014,28.366313 294.328014,30.9120058 293.983322,31.4390829 C293.846245,31.6485444 293.654783,31.8199291 293.55786,31.8199291 C293.460783,31.8199291 293.494245,31.707006 293.632091,31.5688521 C293.93086,31.2696213 294.023553,30.862852 294.238553,28.9063131 C294.334784,28.0303129 294.340168,27.2643128 294.251861,27.0313896 C294.084245,26.5900819 293.312399,26.2593126 292.449706,26.2593126 C291.214552,26.2593126 289.972013,25.3610816 289.778706,24.3283122 C289.717475,24.0022352 289.77886,23.5426197 289.932475,23.1743888 Z M290.695937,26.716005 C290.853552,26.3105433 290.925552,26.2707741 291.218937,26.4281587 C291.503552,26.5806972 291.528168,26.6684665 291.369475,26.9653896 C291.010168,27.6380051 291.534168,31.3551598 292.029168,31.6443137 C292.184552,31.7353137 292.222475,31.812006 292.113091,31.8148522 C291.681398,31.826006 291.232398,30.8136212 290.879091,29.0325439 C290.592091,27.5857744 290.552398,27.0843127 290.695937,26.716005 Z M308.197637,23.0355292 C308.725637,23.0355292 309.20697,23.1581959 309.641637,23.4035292 C310.076303,23.6488625 310.420303,23.9888625 310.673637,24.4235292 C310.92697,24.8581959 311.053637,25.3475292 311.053637,25.8915292 C311.053637,26.4408625 310.92697,26.9328625 310.673637,27.3675292 C310.420303,27.8021959 310.07497,28.1421959 309.637637,28.3875292 C309.200303,28.6328625 308.720303,28.7555292 308.197637,28.7555292 C307.67497,28.7555292 307.19497,28.6328625 306.757637,28.3875292 C306.320303,28.1421959 305.973637,27.8021959 305.717637,27.3675292 C305.461637,26.9328625 305.333637,26.4408625 305.333637,25.8915292 C305.333637,25.3475292 305.461637,24.8581959 305.717637,24.4235292 C305.973637,23.9888625 306.320303,23.6488625 306.757637,23.4035292 C307.19497,23.1581959 307.67497,23.0355292 308.197637,23.0355292 Z M302.021637,23.0435292 C302.645637,23.0435292 303.192303,23.2035292 303.661637,23.5235292 C304.13097,23.8435292 304.45897,24.2861959 304.645637,24.8515292 L303.357637,24.8515292 C303.229637,24.5848625 303.049637,24.3848625 302.817637,24.2515292 C302.585637,24.1181959 302.317637,24.0515292 302.013637,24.0515292 C301.688303,24.0515292 301.39897,24.1275292 301.145637,24.2795292 C300.892303,24.4315292 300.69497,24.6461959 300.553637,24.9235292 C300.412303,25.2008625 300.341637,25.5261959 300.341637,25.8995292 C300.341637,26.2675292 300.412303,26.5915292 300.553637,26.8715292 C300.69497,27.1515292 300.892303,27.3675292 301.145637,27.5195292 C301.39897,27.6715292 301.688303,27.7475292 302.013637,27.7475292 C302.317637,27.7475292 302.585637,27.6795292 302.817637,27.5435292 C303.049637,27.4075292 303.229637,27.2061959 303.357637,26.9395292 L304.645637,26.9395292 C304.45897,27.5101959 304.132303,27.9541959 303.665637,28.2715292 C303.19897,28.5888625 302.65097,28.7475292 302.021637,28.7475292 C301.488303,28.7475292 301.00697,28.6261959 300.577637,28.3835292 C300.148303,28.1408625 299.809637,27.8035292 299.561637,27.3715292 C299.313637,26.9395292 299.189637,26.4488625 299.189637,25.8995292 C299.189637,25.3501959 299.313637,24.8581959 299.561637,24.4235292 C299.809637,23.9888625 300.148303,23.6501959 300.577637,23.4075292 C301.00697,23.1648625 301.488303,23.0435292 302.021637,23.0435292 Z M345.245637,23.1155292 L345.245637,24.0195292 L343.757637,24.0195292 L343.757637,28.6995292 L342.637637,28.6995292 L342.637637,24.0195292 L341.149637,24.0195292 L341.149637,23.1155292 L345.245637,23.1155292 Z M336.685637,23.1075292 L339.221637,26.9475292 L339.221637,23.1075292 L340.341637,23.1075292 L340.341637,28.6995292 L339.221637,28.6995292 L336.685637,24.8675292 L336.685637,28.6995292 L335.565637,28.6995292 L335.565637,23.1075292 L336.685637,23.1075292 Z M332.805637,23.1075292 L334.813637,28.6995292 L333.629637,28.6995292 L333.261637,27.6355292 L331.037637,27.6355292 L330.669637,28.6995292 L329.493637,28.6995292 L331.501637,23.1075292 L332.805637,23.1075292 Z M328.733637,23.1155292 L328.733637,28.6995292 L327.613637,28.6995292 L327.613637,23.1155292 L328.733637,23.1155292 Z M325.061637,23.1155292 L325.061637,27.8115292 L326.901637,27.8115292 L326.901637,28.6995292 L323.941637,28.6995292 L323.941637,23.1155292 L325.061637,23.1155292 Z M321.133637,23.1155292 C321.565637,23.1155292 321.933637,23.1901959 322.237637,23.3395292 C322.541637,23.4888625 322.769637,23.6941959 322.921637,23.9555292 C323.073637,24.2168625 323.149637,24.5128625 323.149637,24.8435292 C323.149637,25.1421959 323.07897,25.4221959 322.937637,25.6835292 C322.796303,25.9448625 322.57497,26.1555292 322.273637,26.3155292 C321.972303,26.4755292 321.592303,26.5555292 321.133637,26.5555292 L320.197637,26.5555292 L320.197637,28.6995292 L319.077637,28.6995292 L319.077637,23.1155292 Z M313.157637,23.1155292 L314.933637,27.2675292 L316.709637,23.1155292 L317.973637,23.1155292 L317.973637,28.6995292 L316.853637,28.6995292 L316.853637,25.0675292 L315.357637,28.6995292 L314.509637,28.6995292 L313.005637,25.0675292 L313.005637,28.6995292 L311.885637,28.6995292 L311.885637,23.1155292 L313.157637,23.1155292 Z M308.197637,24.0435292 C307.861637,24.0435292 307.564303,24.1181959 307.305637,24.2675292 C307.04697,24.4168625 306.845637,24.6315292 306.701637,24.9115292 C306.557637,25.1915292 306.485637,25.5181959 306.485637,25.8915292 C306.485637,26.2648625 306.557637,26.5928625 306.701637,26.8755292 C306.845637,27.1581959 307.04697,27.3755292 307.305637,27.5275292 C307.564303,27.6795292 307.861637,27.7555292 308.197637,27.7555292 C308.533637,27.7555292 308.829637,27.6795292 309.085637,27.5275292 C309.341637,27.3755292 309.541637,27.1581959 309.685637,26.8755292 C309.829637,26.5928625 309.901637,26.2648625 309.901637,25.8915292 C309.901637,25.5181959 309.829637,25.1915292 309.685637,24.9115292 C309.541637,24.6315292 309.341637,24.4168625 309.085637,24.2675292 C308.829637,24.1181959 308.533637,24.0435292 308.197637,24.0435292 Z M332.149637,24.4035292 L331.341637,26.7395292 L332.957637,26.7395292 L332.149637,24.4035292 Z M289.106936,19.0926188 C289.387859,18.4189263 289.356936,18.4286955 290.15486,18.7626956 C290.72686,19.0019264 290.746552,19.0351572 290.487937,19.321465 C289.999937,19.8613112 289.95686,20.6073114 290.39009,21.0116961 C290.790629,21.3852346 291.110629,21.4627731 292.889014,21.6170808 C294.222399,21.7328501 295.050399,22.1236194 295.548245,22.8720811 C296.161246,23.7940043 295.94663,25.0313123 295.066553,25.648697 C294.745938,25.8734663 294.663014,25.8721586 294.302476,25.6355432 L293.89786,25.3700047 L294.408784,25.0589277 C294.799938,24.8206969 294.919553,24.6262353 294.919553,24.2286967 C294.919553,23.0399273 294.131014,22.5544656 292.191168,22.5486195 C289.53709,22.5405425 288.263782,21.113773 289.106936,19.0926188 Z M321.085637,24.0275292 L320.197637,24.0275292 L320.197637,25.6515292 L321.085637,25.6515292 C321.39497,25.6515292 321.624303,25.5808625 321.773637,25.4395292 C321.92297,25.2981959 321.997637,25.0995292 321.997637,24.8435292 C321.997637,24.2995292 321.693637,24.0275292 321.085637,24.0275292 Z M292.816629,22.8893119 C293.01686,22.8893119 293.069014,23.1326196 293.069014,24.0688506 C293.069014,25.0050046 293.01686,25.2483123 292.816629,25.2483123 C292.616476,25.2483123 292.564322,25.0050046 292.564322,24.0688506 C292.564322,23.1326196 292.616476,22.8893119 292.816629,22.8893119 Z M288.309705,14.0880793 C288.574859,13.7947715 288.912782,13.8089253 289.842783,14.15231 L290.233629,14.2966947 L289.716629,14.732464 C289.211783,15.1579256 289.079167,15.6388488 289.304475,16.2269259 C289.49909,16.7346183 290.689706,17.1784645 292.286552,17.3383107 C294.554168,17.5656184 294.976553,17.6522338 295.566092,18.0113108 C296.362476,18.4964648 296.768784,19.2784649 296.769403,20.3277729 C296.769938,21.0770807 296.69863,21.2866961 296.324938,21.6336193 C295.811707,22.110004 295.550399,22.1492348 295.256015,21.7940039 C295.140784,21.6550039 294.923399,21.540927 294.772861,21.5406193 C294.611168,21.5403116 294.722861,21.4033115 295.045707,21.2061577 C295.786245,20.7538499 295.80863,19.9582343 295.099861,19.2781573 C294.639784,18.8364649 294.477245,18.7963879 292.618476,18.6657725 C289.873937,18.4728494 288.512244,17.9358493 287.935398,16.8183106 C287.511782,15.9979258 287.677782,14.7875409 288.309705,14.0880793 Z M292.732552,19.0137726 C293.034476,19.0137726 293.069014,19.1261572 293.069014,20.1090036 C293.069014,21.0919269 293.034476,21.2043115 292.732552,21.2043115 C292.430552,21.2043115 292.396091,21.0919269 292.396091,20.1090036 L292.396496,19.9444417 C292.401071,19.1133244 292.448317,19.0137726 292.732552,19.0137726 Z M338.249444,11.7269991 L340.997299,19.2356738 L338.781974,19.2356738 L338.3666,17.9789027 L335.693299,17.9789027 L335.277926,19.2356738 L333.073251,19.2356738 L335.831757,11.7269991 L338.249444,11.7269991 Z M328.765492,11.7269991 L331.513347,19.2356738 L329.298022,19.2356738 L328.882649,17.9789027 L326.209347,17.9789027 L325.793974,19.2356738 L323.589299,19.2356738 L326.347805,11.7269991 L328.765492,11.7269991 Z M320.66448,11.6950473 C321.573331,11.6950473 322.267396,11.9240352 322.746673,12.3820111 C323.22595,12.839987 323.465588,13.4523967 323.465588,14.2192401 C323.465588,14.694967 323.359082,15.1209911 323.14607,15.4973123 C322.933058,15.8736336 322.615315,16.1700754 322.192841,16.3866376 C321.770368,16.6031999 321.260914,16.711481 320.66448,16.711481 L319.631372,16.711481 L319.631372,19.2356738 L317.533203,19.2356738 L317.533203,11.6950473 L320.66448,11.6950473 Z M314.897588,11.6950473 L314.897588,19.2356738 L312.79942,19.2356738 L312.79942,11.6950473 L314.897588,11.6950473 Z M305.520143,11.6950473 L305.520143,14.5174569 L308.076287,14.5174569 L308.076287,11.6950473 L310.163805,11.6950473 L310.163805,19.2356738 L308.076287,19.2356738 L308.076287,16.1896015 L305.520143,16.1896015 L305.520143,19.2356738 L303.421974,19.2356738 L303.421974,11.6950473 L305.520143,11.6950473 Z M290.406398,7.05569317 C291.197706,7.05115471 291.451245,7.12630857 291.88986,7.49600096 C292.374552,7.90438566 292.396399,7.96453952 292.150245,8.21107803 C291.853322,8.50830886 290.652167,8.57423195 289.746706,8.34269344 C289.272783,8.22153957 289.136859,8.26669343 288.721321,8.68269351 C288.13909,9.2659244 287.916551,10.2439246 288.224244,10.8670017 C288.630475,11.689848 289.779013,12.1078481 292.346245,12.3675404 C293.622783,12.4966174 294.970015,12.6858482 295.340092,12.7883098 C297.887861,13.4931561 298.828246,16.3176951 296.959169,17.6509261 L296.470323,17.9995416 L294.859861,17.097926 L295.550092,16.8043875 C296.362784,16.4586182 296.665938,16.0019258 296.453015,15.4440026 C296.091784,14.4982332 294.929938,13.9775408 293.153091,13.9654638 C290.353552,13.9463869 287.769859,13.1785406 287.050782,12.1520019 C285.744474,10.2873862 286.419397,8.10523185 288.526705,7.37969324 C289.035629,7.20446244 289.881475,7.05869317 290.406398,7.05569317 Z M292.881646,14.2958781 C293.249243,14.299249 293.248838,14.3641086 293.202245,15.601618 C293.156783,16.8100798 293.12486,16.9115414 292.774553,16.9613875 C292.40886,17.0133106 292.396091,16.9691568 292.396091,15.6555411 L292.396521,15.3209044 C292.400426,14.3086635 292.439371,14.2956947 292.823706,14.2956947 Z M327.551323,13.952975 L326.731227,16.4026135 L328.360769,16.4026135 L327.551323,13.952975 Z M337.035275,13.952975 L336.215179,16.4026135 L337.844721,16.4026135 L337.035275,13.952975 Z M320.430167,13.3884931 L319.631372,13.3884931 L319.631372,15.0606376 L320.430167,15.0606376 C321.040801,15.0606376 321.346119,14.7801718 321.346119,14.2192401 C321.346119,13.6654087 321.040801,13.3884931 320.430167,13.3884931 Z M293.848707,7.39938555 C294.787014,6.66000078 297.37963,7.11546242 298.474323,8.21177034 C299.6274,9.3668475 299.531477,11.2685402 298.258631,12.4843097 C297.894707,12.8319251 297.50563,13.1155406 297.393938,13.1146963 C297.282169,13.1138483 296.812169,12.9266175 296.349553,12.6986174 L296.210247,12.6314691 C295.791979,12.4342251 295.380907,12.278802 295.256015,12.2735404 C295.117245,12.2674635 295.419168,12.1190019 295.927092,11.9433865 C296.435015,11.767848 297.021784,11.4249249 297.230861,11.1813094 C297.852707,10.4572323 297.6594,9.28830902 296.786938,8.49753963 C296.476553,8.2163088 296.352399,8.20061649 295.782784,8.37169345 C294.958553,8.61884735 294.37663,8.6186935 293.833937,8.37100114 C293.287014,8.12146263 293.291399,7.83853949 293.848707,7.39938555 Z M292.707014,8.42423643 L292.796476,8.43146269 C293.129553,8.47900116 293.156322,8.59607811 293.201014,10.20954 L293.249014,11.9366942 L292.22786,11.9366942 L292.230168,10.5465401 C292.231322,9.78200143 292.279168,8.98184742 292.336168,8.76846276 C292.40986,8.49284732 292.543245,8.39523191 292.796476,8.43146269 Z M287.305859,5.19661586 C287.527936,5.19661586 288.863167,5.90684678 288.863167,6.02492373 C288.863167,6.10317924 288.016812,6.55008426 287.066771,7.00534431 L286.682985,7.1870399 C285.975693,7.51783397 285.265894,7.82728674 284.846474,7.97330875 C283.985628,8.27307804 281.859166,8.31238574 281.177473,8.04123184 C280.721396,7.85961642 280.744473,7.8442318 281.797396,7.62423175 C282.398858,7.4984625 283.231627,7.26884706 283.647935,7.11377011 C284.713012,6.7170008 286.966167,5.57669287 287.093859,5.3696159 C287.152551,5.27446203 287.247936,5.19661586 287.305859,5.19661586 Z M297.485092,5.55130825 C298.301323,5.14669278 298.392015,5.13100047 298.5394,5.3696159 C298.697554,5.62592365 301.066785,6.77884696 302.315554,7.20715474 C302.913632,7.41223171 303.784247,7.62553945 304.250247,7.68115484 L305.097632,7.78207794 L304.59294,7.99823183 C303.890709,8.29907805 301.680631,8.28453958 300.786862,7.97330875 C299.728785,7.60500098 296.770092,6.17169299 296.770092,6.02761604 C296.770092,5.9605391 297.091784,5.74623136 297.485092,5.55130825 Z M291.040244,7.21861629 C290.953091,7.21861629 290.881937,7.29446245 290.881937,7.38707786 C290.881937,7.47977019 291.000091,7.55561636 291.144244,7.55561636 C291.288398,7.55561636 291.359783,7.47977019 291.302552,7.38707786 C291.245321,7.29446245 291.127398,7.21861629 291.040244,7.21861629 Z M294.498937,7.21861629 C294.360168,7.21861629 294.24663,7.29446245 294.24663,7.38707786 C294.24663,7.47977019 294.360168,7.55561636 294.498937,7.55561636 C294.637784,7.55561636 294.751322,7.47977019 294.751322,7.38707786 C294.751322,7.29446245 294.637784,7.21861629 294.498937,7.21861629 Z M285.389013,4.36199261 C285.837705,4.35053877 286.858551,4.86869272 286.74632,5.0508466 C286.589013,5.30576973 284.495551,6.3003084 283.059166,6.80253928 C281.425089,7.37400093 278.369673,7.56738559 277.089757,7.1806932 L276.335741,6.95269315 L277.930919,6.74223157 C279.575896,6.52538537 282.946781,5.48238515 284.319705,4.76555424 C284.736782,4.54785419 285.217936,4.366208 285.389013,4.36199261 Z M299.338015,4.63058498 C300.073323,4.26746182 300.3474,4.2854926 301.279093,4.75847731 C302.736632,5.49823131 306.065632,6.52638537 307.702325,6.74223157 L309.297556,6.95269315 L308.543556,7.1806932 C307.282632,7.56169328 304.21794,7.36500093 302.574093,6.79753927 C301.152862,6.30684686 299.046785,5.30961589 298.887785,5.0521543 C298.836015,4.96807736 299.038554,4.77836193 299.338015,4.63058498 Z M285.91909,1.5586228 C287.094244,1.10501501 288.336244,1.04519962 289.037321,1.40832277 C289.551552,1.67472282 289.636013,1.88653056 289.75786,3.2156693 C289.852013,4.24403874 290.431244,5.00984659 291.637475,5.70123135 C292.575399,6.23861608 292.746629,6.5201546 292.34086,6.85753929 C292.080629,7.07384702 290.660398,6.51969306 288.826321,5.48592362 C286.575705,4.21758489 286.017166,4.02060793 284.657397,4.01622331 C283.412474,4.01218485 282.644627,3.78891557 282.514243,3.3931078 C282.442781,3.17556929 284.24432,2.20499986 285.91909,1.5586228 Z M296.446553,1.58878434 C297.398246,0.786714947 298.978323,1.06794577 301.954708,2.56929993 C302.65217,2.92113078 303.156862,3.2781847 303.119016,3.3931078 C302.988478,3.78925403 302.220324,4.01218485 300.975939,4.01470793 C299.637323,4.01757716 298.828785,4.30638491 296.824246,5.49823131 C295.344322,6.37815457 293.547245,7.06930856 293.291706,6.85700083 C292.908476,6.53838537 293.045245,6.22661608 293.719399,5.88207755 C295.265399,5.09207738 295.928938,4.15877719 295.928938,2.77369228 C295.928938,2.14450754 296.011553,1.95527673 296.446553,1.58878434 Z M303.537939,3.7735848 C303.718786,3.44989242 303.944016,3.44584627 304.806093,3.75050018 C305.930171,4.1476618 311.595249,5.19661586 312.616787,5.19661586 C312.894172,5.19661586 312.415557,5.69346212 311.861556,5.98046218 C311.096249,6.37676996 309.178402,6.44330843 307.318786,6.13800068 C305.624555,5.85976985 302.032554,4.79403117 301.732939,4.48061572 C301.619247,4.36165415 301.62917,4.34093107 301.763939,4.41658493 C302.039631,4.57177727 303.359247,4.09340025 303.537939,3.7735848 Z M280.728473,3.77341557 C281.620627,3.44584627 281.865396,3.4583155 282.218627,3.84923866 C282.386396,4.03510024 282.83355,4.27251567 283.212089,4.37716185 L283.90032,4.56723112 L282.218012,5.14146201 C279.729996,5.99076988 278.398603,6.2420007 276.245734,6.26823147 C274.265133,6.29238532 273.613401,6.1300776 273.07287,5.47761592 C272.898413,5.26715434 273.023578,5.21407741 273.92631,5.11523123 C275.425603,4.95076966 279.956442,4.05700793 280.728473,3.77341557 Z M292.816629,3.6800617 C293.233014,3.6800617 293.573707,3.75589249 293.573707,3.84856943 C293.573707,3.94124637 293.460091,4.01706947 293.321322,4.01706947 C293.130706,4.01706947 293.069014,4.2229772 293.069014,4.85961579 C293.069014,5.59461595 293.025245,5.70207751 292.726783,5.70207751 C292.413245,5.70207751 292.39386,5.63115442 292.496014,4.85961579 C292.590399,4.1476618 292.565168,4.01706947 292.333629,4.01706947 C292.182937,4.01706947 292.059629,3.94124637 292.059629,3.84856943 C292.059629,3.75589249 292.400245,3.6800617 292.816629,3.6800617 Z M291.756937,0.391576403 C292.207937,0.0114378625 292.406168,-0.047369842 292.976476,0.0291301739 C294.573476,0.243799449 294.977091,2.3633922 293.560399,3.09721543 C292.396552,3.69994632 291.218398,2.92989232 291.218398,1.56603819 C291.218398,0.962291907 291.305706,0.771884175 291.756937,0.391576403 Z" id="hipaa"></path>
        </g>
    </g>
</svg>