<?xml version="1.0" encoding="UTF-8"?>
<svg width="125px" height="77px" viewBox="0 0 125 77" version="1.1" xmlns="http://www.w3.org/2000/svg" xmlns:xlink="http://www.w3.org/1999/xlink">
    <title>logo/IBM</title>
    <g id="logo/IBM" stroke="none" stroke-width="1" fill="none" fill-rule="evenodd">
        <path d="M15.6825441,54.3792161 L33.889326,54.3792161 L33.889326,56.9479167 L15.6825441,56.9479167 Z M15.6825441,49.4753095 L33.889326,49.4753095 L33.889326,52.0440101 L15.6825441,52.0440101 Z M20.8844609,44.5714318 L28.68738,44.5714318 L28.68738,47.1401613 L20.8844609,47.1401613 Z M20.8844609,39.667583 L28.68738,39.667583 L28.68738,42.2362836 L20.8844609,42.2362836 Z M20.8844609,34.7636764 L28.68738,34.7636764 L28.68738,37.332377 L20.8844609,37.332377 Z M20.8844609,29.8598276 L28.68738,29.8598276 L28.68738,32.4285282 L20.8844609,32.4285282 Z M15.6825441,24.9559499 L33.889326,24.9559499 L33.889326,27.5246505 L15.6825441,27.5246505 Z M15.6825441,20.0521011 L33.889326,20.0521011 L33.889326,22.6208017 L15.6825441,22.6208017 Z M36.4903283,52.0440101 L64.2419605,52.0440101 C64.7128029,51.2413425 65.0651506,50.3763753 65.2883306,49.4753095 L36.4903283,49.4753095 L36.4903283,52.0440101 Z M62.069455,39.6674674 L41.6921573,39.6674674 L41.6921573,42.2361391 L64.2390637,42.2361391 C63.6694867,41.2639822 62.9356989,40.3952265 62.069455,39.6674674 Z M41.6922451,34.7636764 L41.6922451,37.3325215 L62.0695428,37.3325215 C62.9358124,36.604753 63.6696292,35.7359883 64.2392392,34.7638209 L41.6922451,34.7636764 Z M64.2419605,24.9559499 L36.4903283,24.9559499 L36.4903283,27.5245927 L65.2883306,27.5245927 C65.0651351,26.6235501 64.7127881,25.7586042 64.2419605,24.9559499 Z M55.6428813,20.0520922 L36.4903283,20.0520922 L36.4903283,22.6207728 L62.3423422,22.6207728 C60.5141146,20.9655441 58.1230957,20.0487923 55.6428813,20.0520922 Z M41.6922451,29.8598276 L49.4951641,29.8598276 L49.4951641,32.4285282 L41.6922451,32.4285282 Z M56.8251684,32.4285571 L65.2259756,32.4285571 C65.4564527,31.5912848 65.573444,30.7275168 65.5738879,29.8598565 L56.8251684,29.8598565 L56.8251684,32.4285571 Z M41.6922451,44.5714318 L49.4951641,44.5714318 L49.4951641,47.1401613 L41.6922451,47.1401613 Z M56.8251684,44.5714318 L56.8251684,47.1401613 L65.5738879,47.1401613 C65.5734479,46.2724912 65.4564567,45.4087131 65.2259756,44.5714318 L56.8251684,44.5714318 Z M36.4903283,56.922371 L55.6428813,56.9477722 C58.1237741,56.95454 60.5160502,56.0373183 62.34243,54.3791005 L36.4903283,54.3791005 L36.4903283,56.922371 Z M88.5056337,56.9478011 L89.4138924,54.3790716 L87.6055681,54.3790716 L88.5056337,56.9478011 L88.5056337,56.9478011 Z M86.7754361,52.0441257 L90.2440244,52.0441257 L91.1569648,49.4753962 L85.8624957,49.4753962 L86.7754361,52.0441257 L86.7754361,52.0441257 Z M85.0323637,47.1401613 L91.9870968,47.1401613 L92.9003298,44.5714318 L84.1191307,44.5714318 L85.0323637,47.1401613 L85.0323637,47.1401613 Z M83.2889987,42.2361969 L93.7304618,42.2361969 L94.6434022,39.6674674 L82.3760583,39.6674674 L83.2889987,42.2361969 L83.2889987,42.2361969 Z M72.9040091,32.4285571 L86.9562685,32.4285571 L86.0518138,29.8598276 L72.9040091,29.8598276 L72.9040091,32.4285571 L72.9040091,32.4285571 Z M91.7898782,27.5245927 L109.317456,27.5245927 L109.317456,24.9558632 L92.694333,24.9558632 L91.7898782,27.5245927 L91.7898782,27.5245927 Z M94.4210193,20.0521878 L93.5165645,22.6209173 L109.317456,22.6209173 L109.317456,20.0521878 L94.4210193,20.0521878 L94.4210193,20.0521878 Z M67.7019753,54.3792161 L80.7068404,54.3792161 L80.7068404,56.9479167 L67.7019753,56.9479167 Z M67.7019753,49.4753095 L80.7068404,49.4753095 L80.7068404,52.0440101 L67.7019753,52.0440101 Z M72.9038921,44.5714318 L80.7068112,44.5714318 L80.7068112,47.1401613 L72.9038921,47.1401613 Z M72.9038921,39.667583 L80.7068112,39.667583 L80.7068112,42.2362836 L72.9038921,42.2362836 Z M104.115451,29.8598276 L90.9676467,29.8598276 L90.0631919,32.4285571 L104.115451,32.4285571 L104.115451,29.8598276 L104.115451,29.8598276 Z M96.3127371,37.3325215 L104.115451,37.3325215 L104.115451,34.763792 L96.3127371,34.763792 L96.3127371,34.763792 L89.2406678,34.763792 L88.5097302,36.8401022 L87.7785001,34.763792 L80.7067234,34.763792 L72.9040091,34.763792 L72.9040091,37.3325215 L80.7067234,37.3325215 L80.7067234,34.9718565 L81.5459263,37.3325215 L95.4735342,37.3325215 L96.3127371,34.9721455 L96.3127371,37.3325215 L96.3127371,37.3325215 Z M96.3125908,39.667583 L104.11551,39.667583 L104.11551,42.2362836 L96.3125908,42.2362836 Z M96.3125908,44.5714318 L104.11551,44.5714318 L104.11551,47.1401613 L96.3125908,47.1401613 Z M96.3125908,49.4753095 L109.317456,49.4753095 L109.317456,52.0440101 L96.3125908,52.0440101 Z M96.3125908,54.3792161 L109.317456,54.3792161 L109.317456,56.9479167 L96.3125908,56.9479167 Z M85.2295822,27.5245927 L84.3251275,24.9558632 L67.7020046,24.9558632 L67.7020046,27.5245927 L85.2295822,27.5245927 L85.2295822,27.5245927 Z M83.5028959,22.6209173 L82.5984412,20.0521878 L67.7020046,20.0521878 L67.7020046,22.6209173 L83.5028959,22.6209173 L83.5028959,22.6209173 Z" id="Combined-Shape" fill="#6C7285" fill-rule="nonzero"></path>
    </g>
</svg>