<?xml version="1.0" encoding="UTF-8"?>
<svg width="42px" height="34px" viewBox="0 0 42 34" version="1.1" xmlns="http://www.w3.org/2000/svg" xmlns:xlink="http://www.w3.org/1999/xlink">
    <title>ISO</title>
    <g id="assets" stroke="none" stroke-width="1" fill="none" fill-rule="evenodd">
        <g id="compliance" transform="translate(-199, 0)" fill="#9EA2BD">
            <path d="M217.825236,1.01593088 C217.93298,0.901848802 217.93298,0.898679855 217.860095,0.901848802 C217.815729,0.905017748 217.717492,0.917693535 217.638585,0.936707216 C215.941614,1.2944813 214.5552,1.86742688 213.10509,2.81716022 C212.750485,3.04817644 212.63672,3.14641379 212.725133,3.14641379 C212.737809,3.14641379 212.940622,3.19077904 213.174807,3.24148219 C213.941058,3.41545737 215.539475,3.67816305 216.096893,3.72252831 L216.216996,3.73203515 L216.350092,3.41545737 C216.736069,2.51325823 217.337852,1.52866647 217.825236,1.01593088 L217.825236,1.01593088 Z M222.263663,0.98107247 C221.75378,0.873328281 221.756948,0.873328281 221.896382,1.03177562 C222.114723,1.28497446 222.475666,1.78218221 222.659148,2.07657736 C222.884143,2.44037245 223.222903,3.10521748 223.368358,3.47566735 L223.479271,3.75104883 L223.684936,3.73203515 C224.037006,3.69749363 224.558297,3.62334027 225.085927,3.53872939 L225.349583,3.49531482 C226.22453,3.34922638 227.040533,3.18665941 227.040533,3.14007589 C227.040533,3.12423116 226.838038,2.9787765 226.591177,2.81716022 C225.242473,1.92763687 223.748315,1.2944813 222.263663,0.98107247 L222.263663,0.98107247 Z M220.725139,1.02543773 C220.284973,0.740549412 219.838468,0.667663637 219.408125,0.813435187 C218.676732,1.06346509 217.980198,1.85475109 217.341021,3.16225852 C217.19525,3.45665367 217.068492,3.72569725 217.059302,3.75421777 C217.043457,3.79858303 217.068492,3.81125882 217.204756,3.82710355 C217.989705,3.91266511 220.047619,3.95671347 221.168158,3.90949617 C222.513693,3.85245512 222.640134,3.84294828 222.640134,3.78273829 C222.640134,3.70351463 222.165426,2.75061234 221.96293,2.42769666 C221.551284,1.76316853 221.142807,1.3008192 220.725139,1.02543773 L220.725139,1.02543773 Z M219.949381,0.00281860778 C220.009591,0.00598755453 220.275466,0.0186633415 220.535003,0.0250012351 C221.427695,0.0566907026 222.49151,0.230982774 223.441244,0.5031953 C226.359844,1.33884656 228.860776,3.15275168 230.659154,5.72973918 C230.757074,5.87202489 230.839467,6.00512065 230.839467,6.02413433 C230.839467,6.04758454 230.715244,6.05740827 230.443982,6.05867585 L229.927761,6.05899275 L229.781989,5.85301121 C229.380167,5.29591037 228.594902,4.42223175 228.078997,3.96305137 L227.857488,3.76689356 L227.315915,3.90315827 C226.347168,4.14051238 225.2805,4.33350124 224.216685,4.46342806 C223.976162,4.49511753 223.780004,4.52997594 223.780004,4.53948278 C223.780004,4.55215857 223.824369,4.70395112 223.877925,4.87507424 C224.001513,5.28323458 224.191333,5.96709329 224.191333,6.01779644 C224.191333,6.04726764 224.106089,6.05740827 223.852573,6.05867585 L223.403216,6.05899275 L223.349344,5.87519384 C223.33857,5.83336374 223.322408,5.77537201 223.304979,5.71357755 L223.270121,5.58840415 C223.258395,5.54720785 223.247621,5.50759601 223.238748,5.47337139 C223.223537,5.42108377 223.207059,5.36594409 223.189946,5.31017063 L223.155405,5.19767302 C223.067942,4.91690434 222.975725,4.64627629 222.956712,4.62472745 C222.944036,4.60888271 222.735202,4.61205166 222.494679,4.63106534 C222.257325,4.65007902 221.582973,4.68176849 221.000521,4.70395112 C219.882833,4.74197848 218.309451,4.70712006 217.258629,4.61838955 C216.989585,4.59620693 216.758252,4.58670009 216.745893,4.59937587 C216.720541,4.62472745 216.492377,5.33710668 216.38495,5.73924602 L216.299388,6.05899275 L215.909925,6.05899275 C215.552151,6.05899275 215.517292,6.05265485 215.517292,6.00195171 C215.517292,5.93223488 215.697922,5.26105196 215.83387,4.82754004 C215.887742,4.66275481 215.919432,4.51730015 215.903587,4.50462437 C215.890911,4.49511753 215.732781,4.466597 215.548982,4.44758332 C214.68481,4.34934597 213.431175,4.11832976 212.471934,3.88414459 L211.879975,3.73837304 L211.712338,3.88097564 C211.202454,4.31765651 210.382648,5.2166867 209.961495,5.79628706 L209.771675,6.05899275 L209.306474,6.05899275 C209.04662,6.05899275 208.837786,6.04948591 208.837786,6.03997907 C208.837786,5.99878276 209.344184,5.29591037 209.629389,4.93496733 C210.844997,3.41228842 212.332818,2.21569413 214.092851,1.34518445 C215.435217,0.680339424 216.745893,0.290875868 218.287586,0.0915491169 C218.676732,0.0408459688 219.708858,-0.013026126 219.949381,0.00281860778 L219.949381,0.00281860778 Z M229.386505,9.86077817 C228.332196,10.0223945 227.718054,10.7724841 227.528234,12.1275258 C227.455349,12.6561061 227.4807,13.7928073 227.575769,14.2358261 C227.876502,15.6225572 228.651943,16.2715574 229.934099,16.2113475 C230.602113,16.179658 230.966225,16.0338864 231.361709,15.6352329 C231.912472,15.087322 232.134298,14.3308945 232.137467,13.023387 C232.137467,11.9503817 231.982189,11.2696919 231.60857,10.7062532 C231.349033,10.3104517 230.928197,10.0192255 230.45951,9.90514342 C230.196804,9.84493343 229.64921,9.81989875 229.386505,9.86077817 L229.386505,9.86077817 Z M211.370409,7.38836591 L211.370409,10.2058765 L209.534321,10.2058765 L209.534321,15.9042765 L211.370409,15.9042765 L211.370409,18.7217871 L207.723585,18.7154492 L204.073275,18.7059423 L204.063768,17.3033665 L204.05743,15.9042765 L205.893835,15.9042765 L205.893835,10.2058765 L204.984981,10.1995386 L204.073275,10.1900317 L204.063768,8.7877728 L204.05743,7.38836591 L211.370409,7.38836591 Z M217.767561,7.18745469 L217.996042,7.19569395 C218.413393,7.21217247 218.814265,7.23689026 219.047182,7.26509388 C219.136863,7.2758683 219.219573,7.28537514 219.302916,7.29329751 L219.386259,7.30090298 C219.737696,7.33100797 220.141103,7.34019792 221.145976,7.3471696 L222.671823,7.35984539 L222.671823,10.7756531 L219.95255,10.7756531 L219.943043,10.4055201 L219.933537,10.0319013 L219.743717,9.95584657 C219.199292,9.74067509 218.467899,9.62342406 217.65443,9.62025511 C216.85332,9.62025511 216.492377,9.68997194 216.147279,9.92098816 C215.792991,10.1520044 215.742288,10.6238605 216.036683,10.9150868 C216.343754,11.2253266 216.720541,11.323564 218.398182,11.5323976 C219.847975,11.7158796 220.408562,11.8331306 221.111117,12.1085121 C221.449878,12.2416079 221.877368,12.4916378 222.143243,12.7163161 C222.535876,13.0424007 222.858791,13.5804879 223.007415,14.1502645 C223.118328,14.5745865 223.150017,15.391224 223.070794,15.8250529 C222.934529,16.5659526 222.655979,17.0977019 222.146412,17.5819169 C221.595649,18.1076452 220.886439,18.4527435 219.908185,18.6710839 C218.828842,18.9147759 217.299825,18.9528033 215.767639,18.7785112 C215.652606,18.7661523 215.548348,18.7560117 215.442188,18.7471387 L215.350606,18.740167 C214.99505,18.7148154 214.58277,18.7062592 213.674867,18.6996045 L212.193384,18.6869287 L212.193384,15.3028104 L214.915826,15.3028104 L214.915826,15.999028 L215.039415,16.062407 C215.441554,16.2652196 216.267699,16.4138432 217.138209,16.4328568 C218.638705,16.4708842 219.313057,16.2050096 219.316226,15.571854 C219.316226,15.3249931 219.246509,15.1918973 219.037675,15.0464426 C218.733773,14.8309543 218.306282,14.7330338 216.942051,14.5587417 C215.302121,14.3467392 214.653121,14.1977987 213.941058,13.8622072 C212.804357,13.3241201 212.244087,12.5043135 212.130005,11.2126509 C212.066943,10.5287921 212.177539,9.88929869 212.446583,9.33219785 C213.051218,8.08173146 214.43478,7.36301434 216.577939,7.18587021 C216.79311,7.16844101 217.272889,7.17160995 217.767561,7.18745469 L217.767561,7.18745469 Z M231.029287,7.2460802 C232.441369,7.45808274 233.565078,7.989832 234.435588,8.85748963 C235.496234,9.91781921 236.00897,11.2791987 236.005815,13.023387 C236.005815,13.8590383 235.914218,14.485856 235.695561,15.1443631 C234.951809,17.3794212 233.023822,18.7154492 230.310886,18.8767486 C228.889297,18.9591412 227.442673,18.6774218 226.407378,18.1139831 C225.707991,17.7340264 224.963923,17.0660124 224.561783,16.4582084 C224.074399,15.7173087 223.773666,14.8689816 223.653246,13.878052 C223.605712,13.4825674 223.615219,12.4821309 223.669091,12.0673158 C223.928628,10.1047871 224.979767,8.61664967 226.670084,7.81585683 C227.376125,7.48343431 228.139207,7.28410756 229.082603,7.18587021 C229.39918,7.15418075 230.681019,7.19220811 231.029287,7.2460802 L231.029287,7.2460802 Z M223.589867,22.3781178 C223.479271,22.3654421 223.479271,22.3654421 223.403216,22.5615999 C223.285965,22.859164 222.89365,23.6380911 222.687668,23.9768515 C222.466159,24.3438155 222.197115,24.7174343 221.96293,24.9864779 C221.864693,25.10056 221.791807,25.1956284 221.798145,25.2051352 C221.833003,25.2399937 222.909494,24.98014 223.485609,24.796658 C224.520587,24.4674044 225.824925,23.8215731 226.768321,23.1725728 L227.046871,22.9795839 L226.879234,22.9415566 C226.03059,22.7453988 225.014626,22.5615999 224.207178,22.4573415 C223.928628,22.4224831 223.650077,22.3876247 223.589867,22.3781178 L223.589867,22.3781178 Z M216.054112,22.3736813 L216.007845,22.3739982 C215.960945,22.3752658 215.913728,22.3787516 215.881404,22.3844557 C215.830701,22.3907936 215.526799,22.4319899 215.207052,22.4760383 C214.447456,22.5806135 213.852328,22.6820198 213.184314,22.8243055 C212.759992,22.916205 212.646227,22.9510634 212.671578,22.9827529 C212.703901,23.0223647 212.98974,23.2144029 213.306952,23.4143634 L213.426738,23.4894675 C213.627649,23.6146409 213.829828,23.7360115 213.978769,23.8184041 C215.061598,24.4230392 216.239178,24.8695438 217.416759,25.1164047 C217.660768,25.1702768 217.875939,25.2114731 217.894953,25.2114731 C217.913967,25.2114731 217.853757,25.1227426 217.758688,25.0118295 C217.245953,24.4262081 216.761421,23.6285842 216.369105,22.7263851 L216.216996,22.3781178 L216.096893,22.3749489 L216.054112,22.3736813 Z M221.959761,22.2355152 C221.440371,22.2006568 218.911234,22.1689674 218.49325,22.19115 C217.638585,22.2386842 217.052647,22.2735426 217.043457,22.2830494 C217.027929,22.2985773 217.168947,22.6065989 217.328979,22.9272963 L217.385703,23.0404277 C217.471899,23.2096495 217.558728,23.3731671 217.625909,23.4891506 C218.075266,24.2617398 218.518602,24.7808133 218.974296,25.0783774 C219.27186,25.2713662 219.45249,25.3347452 219.746886,25.3600967 C220.034943,25.3822794 220.243776,25.3347452 220.566692,25.1702768 C220.930804,24.983309 221.456215,24.4547286 221.81399,23.9134725 C221.909058,23.7702362 222.060217,23.5046784 222.207573,23.2311983 L222.280458,23.0946167 C222.472814,22.7308216 222.640134,22.3876247 222.640134,22.3369215 C222.640134,22.2862184 222.573903,22.2767115 221.959761,22.2355152 L221.959761,22.2355152 Z M209.778013,20.0511602 L209.882588,20.2001007 C210.284411,20.7698774 211.164744,21.7481312 211.661635,22.1784742 L211.841948,22.3337526 L212.358169,22.2069947 C213.348782,21.9633027 214.330205,21.7829896 215.343317,21.6594007 C215.656726,21.6213734 215.916263,21.5865149 215.922601,21.583346 C215.928938,21.580177 215.887742,21.4378913 215.83387,21.2635993 C215.79616,21.1447638 215.753379,21.0024781 215.711866,20.8595586 L215.67669,20.7369203 C215.590495,20.4327014 215.517292,20.1519327 215.517292,20.1082013 C215.517292,20.0603502 215.5512,20.0521109 215.853834,20.0514771 L216.299388,20.0511602 L216.38495,20.3582312 C216.432167,20.5293543 216.530405,20.8586079 216.600121,21.092793 L216.733217,21.5139461 L216.910361,21.4949324 C217.93298,21.3903571 220.598382,21.3618366 221.848848,21.4442292 C222.24148,21.4695808 222.65281,21.4917634 222.763723,21.4917634 L222.969387,21.4917634 L223.077132,21.1593409 C223.137342,20.975542 223.23241,20.6557953 223.289134,20.4469617 L223.393709,20.067005 L223.79268,20.0574981 C224.058554,20.0511602 224.191333,20.0606671 224.191333,20.0828497 C224.191333,20.1367218 223.915952,21.1244825 223.830707,21.3713435 L223.751484,21.5991907 L223.85289,21.6150355 C223.909614,21.6245423 224.13144,21.6562318 224.349781,21.6815833 C225.277331,21.7988344 226.42956,22.0171748 227.303239,22.2386842 C227.756082,22.3559352 227.809954,22.3622731 227.873333,22.3210768 C227.95826,22.2643527 228.210192,22.0260479 228.473214,21.7620746 L228.586029,21.6479925 C228.75525,21.4756018 228.919719,21.3019435 229.038237,21.1688478 C229.228057,20.9501904 229.506608,20.6117469 229.655548,20.4121033 L229.93093,20.0511602 L230.383455,20.0511602 C230.633802,20.0511602 230.839467,20.063836 230.839467,20.0765118 C230.839467,20.1177081 230.421483,20.7191742 230.177791,21.0325831 C227.993436,23.8469247 224.767765,25.6449851 221.199848,26.0407865 C220.611057,26.1041654 218.908065,26.0946586 218.350648,26.0249418 C215.45423,25.6513229 213.013191,24.5117697 210.895383,22.5425862 C210.167476,21.8650654 209.25577,20.7698774 208.8568,20.0891876 C208.839054,20.0625684 208.924932,20.0524278 209.243728,20.0514771 L209.778013,20.0511602 Z M237.087021,32.8682841 L237.087021,33.8596612 L241.005625,33.8596612 L241.005625,32.7744748 L238.897917,32.7744748 C239.485914,32.3219385 239.96997,31.8573946 240.350086,31.3812184 C240.729826,30.9050422 240.919696,30.3887156 240.919696,29.8318633 C240.919696,29.3219157 240.762471,28.9080289 240.447647,28.5905781 C240.132448,28.2731273 239.665653,28.1144019 239.046136,28.1144019 C238.687409,28.1144019 238.360577,28.1845712 238.066766,28.3252853 C237.77258,28.465624 237.535805,28.6843874 237.356442,28.9808249 C237.176703,29.2776377 237.081768,29.6472465 237.071261,30.0892761 L238.359451,30.0892761 C238.359451,29.81873 238.415362,29.6093475 238.527182,29.4611288 C238.639003,29.3125348 238.793976,29.238613 238.991726,29.238613 C239.189476,29.238613 239.337695,29.2982758 239.436758,29.4179765 C239.535445,29.5376772 239.584977,29.7042826 239.584977,29.9177927 C239.584977,30.1984702 239.483287,30.487403 239.280659,30.7842157 C239.077656,31.0806533 238.828873,31.3643327 238.535062,31.6348789 C238.240876,31.905425 237.838997,32.2517691 237.32905,32.6731607 C237.344434,32.662654 237.263758,32.7279453 237.087021,32.8682841 L237.087021,32.8682841 Z M232.629952,32.8682841 L232.629952,33.8596612 L236.548556,33.8596612 L236.548556,32.7744748 L234.440847,32.7744748 C235.028844,32.3219385 235.512901,31.8573946 235.892641,31.3812184 C236.272381,30.9050422 236.462626,30.3887156 236.462626,29.8318633 C236.462626,29.3219157 236.305027,28.9080289 235.990203,28.5905781 C235.675378,28.2731273 235.208208,28.1144019 234.589066,28.1144019 C234.229964,28.1144019 233.903508,28.1845712 233.609321,28.3252853 C233.315511,28.465624 233.078736,28.6843874 232.898997,28.9808249 C232.719634,29.2776377 232.624699,29.6472465 232.614192,30.0892761 L233.902382,30.0892761 C233.902382,29.81873 233.957917,29.6093475 234.070113,29.4611288 C234.181934,29.3125348 234.336531,29.238613 234.534657,29.238613 C234.732032,29.238613 234.880626,29.2982758 234.979313,29.4179765 C235.078376,29.5376772 235.127907,29.7042826 235.127907,29.9177927 C235.127907,30.1984702 235.026218,30.487403 234.823214,30.7842157 C234.620211,31.0806533 234.371804,31.3643327 234.077993,31.6348789 C233.783807,31.905425 233.381928,32.2517691 232.87198,32.6731607 C232.887365,32.662654 232.806689,32.7279453 232.629952,32.8682841 L232.629952,32.8682841 Z M230.662958,31.0104839 C230.662958,31.3643327 230.641944,31.6570179 230.600293,31.8885393 C230.558642,32.120436 230.474213,32.3076795 230.346633,32.4506449 C230.219052,32.5939856 230.030683,32.6652807 229.780775,32.6652807 C229.530867,32.6652807 229.342122,32.5939856 229.214917,32.4506449 C229.087336,32.3076795 229.002532,32.120436 228.961256,31.8885393 C228.91923,31.6570179 228.898592,31.3643327 228.898592,31.0104839 C228.898592,30.4847763 228.956003,30.0802704 229.07045,29.796591 C229.184898,29.5129115 229.421672,29.3710718 229.780775,29.3710718 C230.139877,29.3710718 230.376652,29.5129115 230.491099,29.796591 C230.605546,30.0802704 230.662958,30.4847763 230.662958,31.0104839 L230.662958,31.0104839 Z M227.587137,31.0104839 C227.587137,31.9159316 227.760121,32.626256 228.106465,33.1414569 C228.452434,33.6566578 229.010412,33.9144459 229.780775,33.9144459 C230.550762,33.9144459 231.109115,33.6566578 231.455084,33.1414569 C231.801053,32.626256 231.974037,31.9159316 231.974037,31.0104839 C231.974037,30.1155427 231.801053,29.4100965 231.455084,28.8948956 C231.109115,28.3796947 230.550762,28.1222818 229.780775,28.1222818 C229.010412,28.1222818 228.452434,28.3796947 228.106465,28.8948956 C227.760121,29.4100965 227.587137,30.1155427 227.587137,31.0104839 L227.587137,31.0104839 Z M223.083163,32.8682841 L223.083163,33.8596612 L227.001767,33.8596612 L227.001767,32.7744748 L224.894058,32.7744748 C225.482431,32.3219385 225.966111,31.8573946 226.346227,31.3812184 C226.725967,30.9050422 226.915837,30.3887156 226.915837,29.8318633 C226.915837,29.3219157 226.758613,28.9080289 226.443789,28.5905781 C226.128965,28.2731273 225.661794,28.1144019 225.042652,28.1144019 C224.68355,28.1144019 224.356718,28.1845712 224.062908,28.3252853 C223.768721,28.465624 223.531947,28.6843874 223.352583,28.9808249 C223.172845,29.2776377 223.077909,29.6472465 223.067778,30.0892761 L224.355593,30.0892761 C224.355593,29.81873 224.411503,29.6093475 224.523324,29.4611288 C224.635145,29.3125348 224.790118,29.238613 224.987868,29.238613 C225.185618,29.238613 225.333837,29.2982758 225.432899,29.4179765 C225.531587,29.5376772 225.581118,29.7042826 225.581118,29.9177927 C225.581118,30.1984702 225.479804,30.487403 225.2768,30.7842157 C225.073797,31.0806533 224.82539,31.3643327 224.531204,31.6348789 C224.237018,31.905425 223.835138,32.2517691 223.325191,32.6731607 C223.340951,32.662654 223.260275,32.7279453 223.083163,32.8682841 L223.083163,32.8682841 Z M221.670394,30.8232404 C221.899289,30.8232404 222.088033,30.7541968 222.236252,30.6161094 C222.384471,30.4783973 222.458768,30.3080395 222.458768,30.1050361 C222.458768,29.8967794 222.384471,29.7226692 222.236252,29.5819552 C222.088033,29.4416164 221.899289,29.3710718 221.670394,29.3710718 C221.436246,29.3710718 221.244875,29.4416164 221.096656,29.5819552 C220.948437,29.7226692 220.87414,29.8967794 220.87414,30.1050361 C220.87414,30.3080395 220.948437,30.4783973 221.096656,30.6161094 C221.244875,30.7541968 221.436246,30.8232404 221.670394,30.8232404 L221.670394,30.8232404 Z M221.670394,34 C221.899289,34 222.088033,33.9313316 222.236252,33.7932442 C222.384471,33.6555321 222.458768,33.4847991 222.458768,33.2821709 C222.458768,33.0739142 222.384471,32.8994288 222.236252,32.75909 C222.088033,32.618376 221.899289,32.5482066 221.670394,32.5482066 C221.436246,32.5482066 221.244875,32.618376 221.096656,32.75909 C220.948437,32.8994288 220.87414,33.0739142 220.87414,33.2821709 C220.87414,33.4847991 220.948437,33.6555321 221.096656,33.7932442 C221.244875,33.9313316 221.436246,34 221.670394,34 L221.670394,34 Z M218.610709,29.4806411 L218.610709,33.9377106 L219.999837,33.9377106 L219.999837,28.2393559 L217.83772,28.2393559 L217.83772,29.4806411 L218.610709,29.4806411 Z M215.964535,31.0104839 C215.964535,31.3643327 215.943521,31.6570179 215.90187,31.8885393 C215.860219,32.120436 215.77579,32.3076795 215.64821,32.4506449 C215.520629,32.5939856 215.33226,32.6652807 215.082352,32.6652807 C214.832443,32.6652807 214.643699,32.5939856 214.516494,32.4506449 C214.388913,32.3076795 214.304109,32.120436 214.262833,31.8885393 C214.221182,31.6570179 214.200169,31.3643327 214.200169,31.0104839 C214.200169,30.4847763 214.25758,30.0802704 214.372027,29.796591 C214.486475,29.5129115 214.723249,29.3710718 215.082352,29.3710718 C215.441454,29.3710718 215.678229,29.5129115 215.792676,29.796591 C215.907123,30.0802704 215.964535,30.4847763 215.964535,31.0104839 L215.964535,31.0104839 Z M212.888714,31.0104839 C212.888714,31.9159316 213.061698,32.626256 213.408042,33.1414569 C213.754011,33.6566578 214.311989,33.9144459 215.082352,33.9144459 C215.852339,33.9144459 216.410692,33.6566578 216.756661,33.1414569 C217.10263,32.626256 217.275989,31.9159316 217.275989,31.0104839 C217.275989,30.1155427 217.10263,29.4100965 216.756661,28.8948956 C216.410692,28.3796947 215.852339,28.1222818 215.082352,28.1222818 C214.311989,28.1222818 213.754011,28.3796947 213.408042,28.8948956 C213.061698,29.4100965 212.888714,30.1155427 212.888714,31.0104839 L212.888714,31.0104839 Z M210.874815,31.0104839 C210.874815,31.3643327 210.854177,31.6570179 210.812526,31.8885393 C210.770874,32.120436 210.686446,32.3076795 210.558865,32.4506449 C210.431284,32.5939856 210.24254,32.6652807 209.993007,32.6652807 C209.743099,32.6652807 209.554355,32.5939856 209.427149,32.4506449 C209.299568,32.3076795 209.214765,32.120436 209.173113,31.8885393 C209.131462,31.6570179 209.110824,31.3643327 209.110824,31.0104839 C209.110824,30.4847763 209.168235,30.0802704 209.282683,29.796591 C209.39713,29.5129115 209.633905,29.3710718 209.993007,29.3710718 C210.352109,29.3710718 210.588884,29.5129115 210.703331,29.796591 C210.817779,30.0802704 210.874815,30.4847763 210.874815,31.0104839 L210.874815,31.0104839 Z M207.799369,31.0104839 C207.799369,31.9159316 207.972354,32.626256 208.318698,33.1414569 C208.664667,33.6566578 209.222645,33.9144459 209.993007,33.9144459 C210.762994,33.9144459 211.320972,33.6566578 211.667316,33.1414569 C212.013285,32.626256 212.18627,31.9159316 212.18627,31.0104839 C212.18627,30.1155427 212.013285,29.4100965 211.667316,28.8948956 C211.320972,28.3796947 210.762994,28.1222818 209.993007,28.1222818 C209.222645,28.1222818 208.664667,28.3796947 208.318698,28.8948956 C207.972354,29.4100965 207.799369,30.1155427 207.799369,31.0104839 L207.799369,31.0104839 Z M207.260904,28.2472359 L203.490519,28.2472359 L203.490519,29.3868318 L205.918305,29.3868318 L203.93555,33.9377106 L205.30179,33.9377106 L207.260904,29.238613 L207.260904,28.2472359 Z M199.119379,32.8682841 L199.119379,33.8596612 L203.037982,33.8596612 L203.037982,32.7744748 L200.930274,32.7744748 C201.518271,32.3219385 202.002327,31.8573946 202.382068,31.3812184 C202.762183,30.9050422 202.952053,30.3887156 202.952053,29.8318633 C202.952053,29.3219157 202.794453,28.9080289 202.479629,28.5905781 C202.164805,28.2731273 201.69801,28.1144019 201.078493,28.1144019 C200.719391,28.1144019 200.392934,28.1845712 200.099123,28.3252853 C199.804937,28.465624 199.568163,28.6843874 199.388799,28.9808249 C199.20906,29.2776377 199.114125,29.6472465 199.103619,30.0892761 L200.391809,30.0892761 C200.391809,29.81873 200.447719,29.6093475 200.55954,29.4611288 C200.67136,29.3125348 200.826333,29.238613 201.024084,29.238613 C201.221834,29.238613 201.370052,29.2982758 201.469115,29.4179765 C201.567802,29.5376772 201.617334,29.7042826 201.617334,29.9177927 C201.617334,30.1984702 201.515644,30.487403 201.312641,30.7842157 C201.110013,31.0806533 200.861231,31.3643327 200.56742,31.6348789 C200.273234,31.905425 199.871354,32.2517691 199.361407,32.6731607 C199.376791,32.662654 199.296115,32.7279453 199.119379,32.8682841 L199.119379,32.8682841 Z" id="ISO"></path>
        </g>
    </g>
</svg>