<?xml version="1.0" encoding="UTF-8"?>
<svg width="125px" height="77px" viewBox="0 0 125 77" version="1.1" xmlns="http://www.w3.org/2000/svg" xmlns:xlink="http://www.w3.org/1999/xlink">
    <title>logo/nedbank</title>
    <g id="logo/nedbank" stroke="none" stroke-width="1" fill="none" fill-rule="evenodd">
        <path d="M12.3863494,26.268279 C15.6286507,26.2596692 18.7396924,27.5496379 21.0261722,29.8507631 C23.3337556,32.1606542 24.6050703,35.2322018 24.6050703,38.4992257 C24.6136607,41.7452231 23.3250152,44.8598531 21.0261722,47.1492459 C18.7185887,49.4591369 15.6501096,50.7317255 12.3863494,50.7317255 C9.14354344,50.7405825 6.0319286,49.4506084 3.74497061,47.1492459 C1.43660914,44.8393549 0.165292915,41.7662496 0.165292915,38.4992257 C0.156544795,35.253501 1.44556483,32.1392036 3.74497061,29.8507631 C6.03168232,27.5490327 9.14345775,26.2589921 12.3863494,26.268279 Z M12.3863494,27.6669904 C9.51462259,27.658664 6.75895298,28.8009033 4.73382381,30.8390476 C2.68843038,32.8849289 1.56337633,35.6052422 1.56337633,38.4992257 C1.55477772,41.3741868 2.69655612,44.1329016 4.73382381,46.1594038 C6.75869617,48.1981196 9.5143977,49.3409331 12.3863494,49.3330143 C15.2583011,49.3409331 18.0140026,48.1981196 20.038875,46.1594038 C22.0834904,44.1150802 23.2084957,41.3932093 23.2084957,38.4992257 C23.2084957,35.6052422 22.0827124,32.8849289 20.038875,30.8390476 C17.9950376,28.7931664 15.2774418,27.6669904 12.3863494,27.6669904 Z M8.5336342,30.9363964 L12.5645141,33.4409849 L16.1877158,30.9434055 L20.0723295,33.5383336 L20.0723295,43.4936058 L16.4125613,45.9592548 L12.6959982,43.5823878 L8.8269447,46.0636127 L4.69881327,43.5917333 L4.73148977,33.5718216 L8.5336342,30.9363964 Z M32.2365464,33.8560799 L38.45364,40.9220413 L38.4863165,40.8885534 L38.3711707,37.7445783 C38.3384942,36.3209502 38.1735557,35.4105447 37.9417081,35.113047 C37.6592898,34.7820612 37.2803979,34.6496669 36.4868257,34.6169577 L36.4868257,33.8560799 L40.7518873,33.8560799 L40.7518873,34.6169577 C40.7184328,34.6340911 40.6857563,34.6340911 40.66864,34.6340911 C39.4463832,34.7984158 39.2472122,35.1301803 39.2472122,36.8840153 L39.2472122,36.9829217 L39.3467977,42.2288509 C39.34882,42.6615145 39.387601,43.093222 39.4627215,43.5193059 L39.563085,44.0169527 C39.6105437,44.2646079 39.6439982,44.5613268 39.6439982,44.8268942 C39.6439982,45.0262644 39.6439982,45.1088162 39.6105437,45.3074076 L38.4870945,45.3074076 L30.6509581,36.3707928 L30.6182816,36.4035019 L30.7497656,41.368288 C30.7824421,42.6603005 30.9318204,43.4523299 31.2134607,43.8175824 C31.5098833,44.1657015 31.9899166,44.3635142 32.5850958,44.3635142 L32.7010196,44.3635142 L32.7010196,45.1430829 L28.2196707,45.1430829 L28.2196707,44.3650718 L28.3192562,44.3650718 C29.1447269,44.3650718 29.6753311,44.0005981 29.8394916,43.2903416 C29.9227389,42.9079557 29.9382991,42.5933246 29.9382991,41.9500441 L29.9382991,41.7506738 L29.8566079,35.494654 L29.7904768,35.4284569 C29.1781814,34.9308101 28.7160423,34.7002883 28.1698779,34.6169577 L28.1698779,33.8560799 L32.2365464,33.8560799 Z M102.068565,33.8568587 L108.286437,40.9228201 L108.318336,40.8893321 L108.201634,37.745357 C108.169735,36.321729 108.004019,35.4113235 107.771393,35.1138257 C107.492087,34.78284 107.110861,34.6504457 106.317289,34.6177365 L106.317289,33.8568587 L110.58235,33.8568587 L110.58235,34.6177365 C110.548896,34.6348699 110.516997,34.6348699 110.499103,34.6348699 C109.277624,34.7991946 109.078453,35.1309591 109.078453,36.8847941 L109.078453,36.9837005 L109.178817,42.2296297 C109.181289,42.6621704 109.21928,43.0937756 109.292406,43.5200847 L109.39277,44.0177314 C109.44601,44.2844745 109.473883,44.5556667 109.476017,44.827673 C109.476017,45.0270432 109.476017,45.109595 109.442563,45.3074076 L108.318336,45.3074076 L100.480643,36.3707928 L100.448745,36.4035019 L100.581007,41.368288 C100.614461,42.6603005 100.763839,43.4523299 101.044702,43.8175824 C101.34268,44.1657015 101.821158,44.3635142 102.417115,44.3635142 L102.533039,44.3635142 L102.533039,45.1438617 L98.0501337,45.1438617 L98.0501337,44.3658506 L98.1504973,44.3658506 C98.976746,44.3658506 99.5057941,44.0013769 99.6715107,43.2911204 C99.7539799,42.9087345 99.7703182,42.5941034 99.7703182,41.9508229 L99.7703182,41.7514526 L99.6886269,35.4954328 L99.6217179,35.4292357 C99.0109785,34.9315889 98.5457274,34.7010671 98.000341,34.6177365 L98.000341,33.8568587 L102.068565,33.8568587 Z M63.6363309,33.8545224 C64.8266892,33.8545224 65.4070861,33.9207195 66.116633,34.119311 C66.5946094,34.2440891 67.0513768,34.4393674 67.4719299,34.6987307 C68.9929432,35.6581999 69.9016612,37.3964591 69.9016612,39.3481068 C69.9016612,42.046614 68.2164873,44.1968531 65.6031451,44.8767368 C64.7932347,45.0916828 64.2159498,45.15788 62.5953509,45.1415254 L56.7921598,45.1415254 L56.7921598,44.3635142 L56.9244218,44.3635142 C57.9490635,44.3635142 58.2470421,43.9663313 58.2470421,42.5761912 L58.2470421,36.4206353 C58.2470421,35.0304952 57.9490635,34.616179 56.9244218,34.616179 L56.7921598,34.616179 L56.7921598,33.8545224 Z M78.6496276,33.8545224 C81.3096505,33.8545224 82.8477801,34.8303462 82.8477801,36.503187 C82.8477801,37.3458378 82.3693028,38.123849 81.5259378,38.587229 C80.9455409,38.9026389 80.6491184,39.0015453 79.7575166,39.1830033 L79.7575166,39.2164913 C81.9717387,39.547477 83.1947735,40.5567888 83.1947735,42.046614 C83.1947735,43.0567046 82.5669178,44.0325284 81.6084071,44.545751 C80.7331436,45.0083523 79.9699139,45.15788 78.1695942,45.1415254 L71.4576851,45.1415254 L71.4576851,44.3635142 L71.5230381,44.3635142 C72.5974726,44.3635142 72.8783349,43.9826859 72.8783349,42.5761912 L72.8783349,36.4206353 C72.8783349,35.0304952 72.5803564,34.616179 71.5728309,34.616179 L71.4242306,34.616179 L71.4242306,33.8545224 Z M54.2465046,33.8553012 L54.2465046,36.2383985 L53.1557319,36.2383985 L53.0398081,36.1052254 C52.4438509,35.361481 52.0805194,35.0632044 51.5506932,34.8482584 C51.1546851,34.6823761 50.7750153,34.616179 50.0958109,34.616179 L47.7820033,34.616179 L47.7820033,38.8372206 L49.3356932,38.8372206 C50.625637,38.8372206 51.1383469,38.7032687 51.5016785,38.2733766 C51.732748,37.9930123 51.799657,37.8598392 51.9140248,37.4291683 L53.0047976,37.4291683 L53.0047976,41.0871448 L51.9140248,41.0871448 C51.7662025,40.4423067 51.3857547,39.9446599 50.9057213,39.7632018 C50.5921825,39.6308076 50.2280729,39.5965408 49.3520314,39.5965408 L47.7812253,39.5965408 L47.7812253,42.6268126 C47.7812253,43.9491979 48.2270261,44.3635142 49.6647922,44.3635142 C50.9710743,44.3635142 51.3670824,44.297317 52.0789633,43.8837796 C52.706041,43.5364392 53.1199433,43.1883201 53.7159005,42.4772849 L53.8310463,42.3441118 L54.9723898,42.3441118 L54.4931344,45.1415254 L43.3823457,45.1415254 L43.3823457,44.3635142 L43.5480622,44.3635142 C44.5563657,44.3635142 44.8543443,43.9663313 44.8543443,42.5761912 L44.8543443,36.4206353 C44.8543443,35.0304952 44.5555877,34.616179 43.5480622,34.616179 L43.3823457,34.616179 L43.3823457,33.8553012 L54.2465046,33.8553012 Z M91.7412348,33.7221281 L95.2617389,42.7584281 C95.7402162,43.9663313 96.1370023,44.3635142 96.8481053,44.3635142 L96.8481053,45.1415254 L91.2440852,45.1415254 L91.2440852,44.3635142 C91.9536321,44.3463808 92.4352215,44.0325284 92.4352215,43.5683696 C92.4352215,43.4359753 92.4173272,43.3869116 92.3169636,43.0567046 C92.2842871,42.9063982 92.2516106,42.8082706 92.2360504,42.7584281 L91.491493,40.8877746 L87.6403338,40.8869958 L87.1447402,42.2942692 C87.0124781,42.6906733 86.9136706,43.1384776 86.9136706,43.370557 C86.9136706,43.9655525 87.2598859,44.2638291 88.0200036,44.3627354 L88.0200036,45.1407466 L84.1346119,45.1407466 L84.1346119,44.3627354 C85.2106024,44.1649227 85.4751265,43.8985766 86.0524114,42.4110877 L89.0959941,34.6660215 L88.6657535,33.7221281 L91.7412348,33.7221281 Z M118.024035,33.8553012 L118.024035,34.616179 L117.891773,34.616179 C116.867909,34.616179 116.56993,35.0304952 116.56993,36.4206353 L116.56993,39.0521666 L119.03156,37.04834 C119.859365,36.370014 120.453766,35.6254908 120.453766,35.2454412 C120.453766,34.864613 120.123889,34.616179 119.611957,34.616179 L119.495255,34.616179 L119.495255,33.8553012 L124.059851,33.8553012 L124.059851,34.616179 C122.967523,34.831125 122.787024,34.9300313 121.545317,35.9736099 L118.784152,38.2897312 L122.867159,42.9562407 C123.678626,43.8658674 124.224012,44.2646079 124.834751,44.3635142 L124.834751,45.1415254 L122.310881,45.1415254 C122.310881,45.1415254 121.52042,44.9756431 121.070729,44.7404485 C120.596142,44.4943509 120.256151,44.2139865 119.990071,43.8993554 L116.56993,39.8792416 L116.56993,42.5761912 C116.56993,43.9663313 116.867909,44.3635142 117.891773,44.3635142 L117.99058,44.3635142 L117.99058,45.1415254 L112.187389,45.1415254 L112.187389,44.3635142 L112.371,44.3635142 C113.394864,44.3635142 113.692842,43.9663313 113.692842,42.5761912 L113.692842,36.4206353 C113.692842,35.0304952 113.394864,34.616179 112.371,34.616179 L112.187389,34.616179 L112.187389,33.8553012 L118.024035,33.8553012 Z M8.82616669,41.1175176 L8.82616669,44.9569521 L11.7553817,43.0450228 L8.82616669,41.1175176 Z M77.4094766,39.6970047 L75.8044379,39.6970047 L75.8044379,42.5442608 C75.8044379,43.8012278 76.333486,44.3814264 77.4592693,44.3814264 C79.0946505,44.3814264 80.0531612,43.5527938 80.0531612,42.1455204 C80.0531612,40.6899619 78.9795047,39.6970047 77.4094766,39.6970047 Z M61.6026077,34.616179 L61.1739231,34.616179 L61.1739231,42.3939544 C61.1739231,43.8331582 61.6360622,44.3463808 62.9750208,44.3463808 C63.5709779,44.3463808 64.3139793,44.2139865 64.7271037,44.0325284 C66.0007093,43.4865967 66.7771652,41.8807318 66.7771652,39.7468473 C66.7771652,38.9026389 66.6620194,38.1074944 66.4293938,37.3629712 C66.2288386,36.7298271 65.8839083,36.1520578 65.4218684,35.6753333 C64.6617507,34.8638342 63.9490917,34.6488881 62.1479941,34.6333123 L61.6026077,34.616179 Z M8.66589623,31.9745234 L5.62075744,34.0367592 L19.1628335,42.8760253 L19.1900639,34.0897169 L16.3355381,32.2377544 L16.3355381,37.0537916 L8.66589623,31.9745234 Z M89.4920022,35.7586638 L88.0192256,39.9119507 L91.1266054,39.9119507 L89.4920022,35.7586638 Z M77.242982,34.6169577 L75.8052159,34.6169577 L75.8052159,38.9041965 L77.4413751,38.9041965 C78.2684018,38.9041965 78.6317334,38.7881568 79.0783122,38.4065497 C79.5085528,38.027279 79.7225061,37.5623414 79.7225061,36.9175033 C79.7225061,36.1231375 79.4097453,35.4611661 78.8309044,35.031274 C78.3687653,34.7002883 78.0707867,34.6169577 77.242982,34.6169577 Z" id="Combined-Shape" fill="#6C7285" fill-rule="nonzero"></path>
    </g>
</svg>