<?xml version="1.0" encoding="UTF-8"?>
<svg width="125px" height="77px" viewBox="0 0 125 77" version="1.1" xmlns="http://www.w3.org/2000/svg" xmlns:xlink="http://www.w3.org/1999/xlink">
    <title>logo/ocado</title>
    <g id="logo/ocado" stroke="none" stroke-width="1" fill="none" fill-rule="evenodd">
        <path d="M40.7495551,47.9474498 C45.4369672,47.8431797 49.166064,43.943478 49.0618993,39.2513235 C48.9577345,34.559169 45.0619743,30.8262995 40.3745621,30.9305696 C35.7496489,31.0348397 32.062218,34.8094173 32.062218,39.4390097 C31.9997192,44.0894561 35.707983,47.8848877 40.3537292,47.9474498 C40.4787269,47.9683038 40.6245575,47.9474498 40.7495551,47.9474498 M40.7495551,44.4648285 C37.9579408,44.4648285 36.0204771,42.4002805 36.0204771,39.4598637 C36.0204771,36.4985929 37.9579408,34.4548989 40.7495551,34.4548989 C43.5411694,34.4548989 45.4786331,36.5194469 45.4786331,39.4598637 C45.4786331,42.4002805 43.5411694,44.4648285 40.7495551,44.4648285 M67.4365547,45.2155732 C65.7282534,47.0090189 63.353298,47.9891578 60.8741778,47.9474498 C55.9992692,47.9474498 52.1660077,44.4022664 52.1660077,39.4390097 C52.1660077,34.4340449 56.1242668,30.9305696 60.8741778,30.9305696 C63.2074674,30.9097156 65.4365922,31.7647304 67.1865594,33.3079278 C67.3948888,33.516468 67.4157218,33.8292783 67.2073924,34.0586726 L65.5824228,36.0815125 C65.4365922,36.3109067 65.144931,36.3943228 64.9157687,36.2483446 C64.8949357,36.2274906 64.8741028,36.2066366 64.8532698,36.2066366 C63.8324556,35.1013735 62.3741497,34.4548989 60.8741778,34.4548989 C57.9783987,34.4548989 56.1242668,36.5611549 56.1242668,39.4390097 C56.1242668,42.2960104 57.9992317,44.4231204 60.8741778,44.4231204 C62.4158155,44.4231204 63.8949545,43.7557918 64.9157687,42.5879667 C65.0615993,42.3585725 65.3740934,42.2960104 65.6032558,42.4419885 C65.6449217,42.4628425 65.6865875,42.5045506 65.7282534,42.5462586 L67.4157218,44.4231204 C67.6448842,44.6108066 67.6657171,44.9236169 67.4990536,45.1530111 C67.4782206,45.1738651 67.4573877,45.1947191 67.4365547,45.2155732 M76.1030589,47.9474498 C77.9155249,48.0517199 79.707158,47.4260993 81.0404663,46.1957121 C81.165464,46.070588 81.3112946,46.070588 81.3112946,46.2582742 L81.3112946,47.154997 C81.2696287,47.4052453 81.4571252,47.6554935 81.7071205,47.6763475 C81.7487864,47.6763475 81.7696193,47.6763475 81.8112852,47.6763475 L84.3945701,47.6763475 C84.6445654,47.6763475 84.8528948,47.4886613 84.8528948,47.2384131 C84.8528948,47.2175591 84.8528948,47.1967051 84.8528948,47.175851 L84.8528948,37.0199434 C84.8528948,32.9951175 82.248777,30.9514236 77.8530261,30.9514236 C75.2280753,30.8471535 72.6864563,31.8690005 70.8739903,33.7875703 C70.7281597,33.9544025 70.7489926,34.2255047 70.9156562,34.3714828 C70.9156562,34.3714828 70.9156562,34.3714828 70.9364891,34.3923369 L72.7072892,36.1023665 C72.8947857,36.2900527 73.2072799,36.2900527 73.3947764,36.1023665 C74.4989223,34.9345414 76.0405601,34.2672128 77.6655296,34.2880668 C79.5613274,34.2880668 80.8946357,35.2473517 80.8946357,36.5611549 C80.8946357,37.2076295 80.5196428,37.4995858 79.4988286,37.5621479 L75.8322307,37.8123961 C74.3739247,37.8123961 72.9572846,38.2294765 71.7489739,39.0219293 C70.5406632,39.8560901 69.8115102,41.2324554 69.8115102,42.6922368 C69.8323431,45.7994857 72.3947951,47.9474498 76.1030589,47.9474498 M76.8322119,44.7359307 C74.9989129,44.7359307 73.7906023,43.9017699 73.7906023,42.6505287 C73.7906023,41.5244117 74.5614211,40.836229 76.061393,40.7111049 L79.1446685,40.4400026 C79.6446592,40.3982946 80.1446498,40.3148785 80.6446404,40.2314624 C80.8946357,40.1689004 81.0196334,40.2523164 81.0196334,40.4400026 L81.0196334,41.5035576 C81.0196334,43.4012734 79.2696662,44.7359307 76.8322119,44.7359307 M95.9360204,47.9474498 C97.1026652,47.9683038 98.248477,47.7180556 99.2901242,47.1967051 C99.8317807,46.9256028 100.331771,46.5919385 100.790096,46.1957121 C100.935927,46.070588 101.040091,46.112296 101.040091,46.2582742 L101.040091,47.154997 C100.998425,47.4052453 101.185922,47.6554935 101.435917,47.6763475 C101.477583,47.6763475 101.498416,47.6763475 101.540082,47.6763475 L104.435861,47.6763475 C104.685856,47.6972015 104.915019,47.5095154 104.935852,47.2592671 C104.935852,47.2384131 104.935852,47.1967051 104.935852,47.175851 L104.935852,25.3416923 C104.956685,25.07059 104.748355,24.8620498 104.477527,24.8411958 C104.456694,24.8411958 104.435861,24.8411958 104.435861,24.8411958 L101.540082,24.8411958 C101.290087,24.8203418 101.060924,25.0080279 101.040091,25.2582762 C101.040091,25.2791302 101.040091,25.3208382 101.040091,25.3416923 L101.040091,32.6823072 C101.040091,32.8699934 100.915094,32.8282854 100.852595,32.7657233 C99.5401195,31.5144821 97.7693193,30.8680075 95.9776863,30.9305696 C91.4569377,30.9305696 87.8319137,34.3923369 87.8319137,39.4390097 C87.8111727,44.6316606 91.33194,47.9474498 95.9360204,47.9474498 M96.4776769,44.4648285 C93.7068955,44.4648285 91.7694318,42.4002805 91.7694318,39.4598637 C91.7694318,36.4985929 93.7068955,34.4548989 96.4776769,34.4548989 C99.2484583,34.4548989 101.185922,36.5194469 101.185922,39.4598637 C101.165089,42.4002805 99.2484583,44.4648285 96.4776769,44.4648285 M116.685631,47.9474498 C121.373043,47.8431797 125.10214,43.943478 124.997975,39.2513235 C124.893811,34.559169 120.99805,30.8262995 116.310638,30.9305696 C111.685725,31.0348397 107.998294,34.8094173 107.998294,39.4390097 C107.935795,44.0894561 111.644059,47.8848877 116.289805,47.9474498 C116.435636,47.9683038 116.560634,47.9683038 116.685631,47.9474498 M116.685631,44.4648285 C113.894017,44.4648285 111.956553,42.4002805 111.956553,39.4598637 C111.956553,36.4985929 113.894017,34.4548989 116.685631,34.4548989 C119.477246,34.4548989 121.414709,36.5194469 121.414709,39.4598637 C121.414709,42.4002805 119.498079,44.4648285 116.685631,44.4648285 M17.2083298,44.1520182 C21.3124196,44.2354342 24.9998504,41.6495358 26.2914929,37.7498341 C26.4164905,37.4370238 26.5206552,37.2910456 26.7289847,37.2910456 C27.0623117,37.2910456 27.1873094,37.72898 27.1873094,38.5005788 C27.2914741,45.9246098 21.3749184,52.0348377 13.9583908,52.1601755 C13.875059,52.1601755 13.8125602,52.1601755 13.7292284,52.1601755 C6.18770314,52.2016698 0.041985035,46.13315 0.000105657939,38.6048489 C-0.0413467359,31.0556937 6.0210396,24.9037578 13.5417319,24.8620498 C13.6667296,24.8620498 13.8125602,24.8620498 13.9375578,24.8620498 C20.3124383,24.8620498 25.3956763,28.8868756 25.3956763,33.9544025 C25.4373422,37.708126 22.4165655,40.794521 18.6666358,40.836229 C18.604137,40.836229 18.5624711,40.836229 18.4999723,40.836229 C15.0000379,40.836229 12.1042589,38.3963087 12.1042589,34.9971034 C12.1042589,33.6415922 12.5625836,32.3277889 13.3750684,31.2433799 C14.0000567,30.4717811 14.5625461,30.284095 14.5625461,30.7220294 C14.4792143,31.0765477 14.4375485,31.4519201 14.3958826,31.8064384 C14.4792143,33.3496359 15.7916897,34.538315 17.3333275,34.4548989 C18.9999629,34.4548989 20.3541042,33.1202417 20.3541042,31.4519201 C20.3541042,31.4310661 20.3541042,31.4310661 20.3541042,31.410212 C20.3541042,29.262248 18.1458123,27.5313643 15.2916991,27.5313643 C11.0417788,27.5313643 7.85433855,31.410212 7.85433855,35.6435781 C7.89600444,40.5025647 12.0209271,44.1520182 17.2083298,44.1520182" id="Combined-Shape" fill="#6C7285" fill-rule="nonzero"></path>
    </g>
</svg>