<?xml version="1.0" encoding="UTF-8"?>
<svg width="125px" height="77px" viewBox="0 0 125 77" version="1.1" xmlns="http://www.w3.org/2000/svg" xmlns:xlink="http://www.w3.org/1999/xlink">
    <title>logo/pwc</title>
    <g id="logo/pwc" stroke="none" stroke-width="1" fill="none" fill-rule="evenodd">
        <path d="M75.9505063,49.9384058 C73.3318237,50.415006 71.9034513,52.321407 71.9034513,55.7767588 C71.9034513,59.2321105 73.6889168,61.6151117 76.5456615,61.6151117 C77.8550028,61.6151117 79.0453131,61.1385115 81.5449647,59.9470109 L81.5449647,62.8066123 C78.569189,64.117263 76.7837235,64.5938632 74.4031029,64.5938632 C71.7844203,64.5938632 69.9989548,63.8789629 68.4515515,62.3300121 C66.9041481,60.7810613 66.1899619,58.7555103 66.1899619,56.4916591 C66.1899619,51.4873566 69.8799238,48.1511549 75.3553512,48.1511549 C78.9262821,48.1511549 81.4259337,49.8192557 81.4259337,52.2022569 C81.4259337,53.7512077 80.2356234,54.8235583 78.569189,54.8235583 C77.7359718,54.8235583 77.0217856,54.5852582 76.0695373,54.1086579 L76.0695373,49.9384058 L75.9505063,49.9384058 Z M62.7380621,56.6108092 C65.1186826,53.6320577 65.9518999,52.321407 65.9518999,50.8916063 C65.9518999,49.4618056 64.7615896,48.270305 63.2141862,48.270305 C62.2619379,48.270305 61.4287207,48.7469052 60.9525966,49.2235054 L60.9525966,55.4193086 L57.0245726,60.6619112 L57.0245726,48.7469052 L53.3346107,48.7469052 L47.0259662,58.8746603 L47.0259662,48.6277551 L44.8834077,48.6277551 L39.2889493,50.0575559 L39.2889493,51.4873566 L42.383756,51.8448068 L42.383756,64.4747132 L46.31178,64.4747132 L52.2633315,54.7044082 L52.2633315,64.4747132 L56.6674796,64.4747132 L62.7380621,56.6108092 Z M27.3858463,51.8448068 C28.3380946,51.7256567 28.6951877,51.7256567 29.1713118,51.7256567 C31.7899944,51.7256567 33.2183668,53.3937575 33.2183668,56.7299592 C33.2183668,60.5427612 31.5519324,62.5683122 28.3380946,62.5683122 C28.1000325,62.5683122 27.8619705,62.5683122 27.5048774,62.5683122 L27.5048774,51.8448068 L27.3858463,51.8448068 Z M27.3858463,64.236413 C28.4571256,64.3555631 29.4093738,64.3555631 30.004529,64.3555631 C35.3609253,64.3555631 38.6937941,60.9002114 38.6937941,55.8959088 C38.6937941,51.4873566 36.1941425,48.389455 32.7422427,48.389455 C31.3138703,48.389455 30.242591,48.7469052 27.3858463,50.415006 L27.3858463,48.270305 L25.838443,48.270305 L19.6488294,50.1767059 L19.6488294,51.7256567 L22.2675121,51.7256567 L22.2675121,69.3598656 L19.8868915,69.9556159 L19.8868915,71.3854167 L30.004529,71.3854167 L30.004529,69.9556159 L27.3858463,69.3598656 L27.3858463,64.236413 Z M57.0245726,39.2149004 L72.4986065,39.2149004 L72.4986065,35.4020984 L57.0245726,35.4020984 L57.0245726,39.2149004 Z M105.351171,26.704144 L105.351171,35.4020984 L72.4986065,35.4020984 L72.4986065,5.61458333 L89.2819816,5.61458333 L89.2819816,9.06993508 L92.7338815,9.06993508 L92.7338815,14.1933877 L100.947022,14.1933877 L100.947022,26.704144 L105.351171,26.704144 Z M92.7338815,15.5040383 L92.7338815,26.8232941 L99.7567122,26.8232941 L99.7567122,15.5040383 L92.7338815,15.5040383 Z M73.6889168,26.704144 L81.7830268,26.704144 L81.7830268,23.6062425 L73.6889168,23.6062425 L73.6889168,26.704144 Z M73.6889168,14.1933877 L87.9726403,14.1933877 L87.9726403,10.2614357 L73.6889168,10.2614357 L73.6889168,14.1933877 Z M73.6889168,15.5040383 L73.6889168,22.4147418 L82.973337,22.4147418 L82.973337,26.704144 L87.9726403,26.704144 L87.9726403,15.5040383 L73.6889168,15.5040383 Z M73.6889168,34.0914478 L81.7830268,34.0914478 L81.7830268,27.8956446 L73.6889168,27.8956446 L73.6889168,34.0914478 Z M82.973337,34.0914478 L87.9726403,34.0914478 L87.9726403,27.8956446 L82.973337,27.8956446 L82.973337,34.0914478 Z M89.2819816,34.0914478 L91.5435712,34.0914478 L91.5435712,27.8956446 L89.2819816,27.8956446 L89.2819816,34.0914478 Z M91.5435712,26.704144 L91.5435712,15.5040383 L89.2819816,15.5040383 L89.2819816,26.8232941 L91.5435712,26.8232941 L91.5435712,26.704144 Z M89.2819816,10.2614357 L89.2819816,14.1933877 L91.5435712,14.1933877 L91.5435712,10.2614357 L89.2819816,10.2614357 Z M73.6889168,9.06993508 L87.9726403,9.06993508 L87.9726403,6.80608394 L73.6889168,6.80608394 L73.6889168,9.06993508 Z M99.7567122,34.0914478 L99.7567122,27.8956446 L92.7338815,27.8956446 L92.7338815,34.0914478 L99.7567122,34.0914478 Z M104.16086,27.8956446 L101.066054,27.8956446 L101.066054,34.0914478 L104.16086,34.0914478 L104.16086,27.8956446 Z" id="Shape" fill="#6C7285" fill-rule="nonzero"></path>
    </g>
</svg>