<?xml version="1.0" encoding="UTF-8"?>
<svg width="39px" height="34px" viewBox="0 0 39 34" version="1.1" xmlns="http://www.w3.org/2000/svg" xmlns:xlink="http://www.w3.org/1999/xlink">
    <title>soc2</title>
    <g id="assets" stroke="none" stroke-width="1" fill="none" fill-rule="evenodd">
        <g id="compliance" transform="translate(-129, 0)" fill="#9EA2BD">
            <g id="soc2" transform="translate(129.762, 0)">
                <path d="M18.6755853,0 C27.7885614,0 35.2267856,7.1704651 35.6560208,16.1771581 L37.3416142,16.1771168 L37.3416142,17.8228832 L35.6560208,17.8228419 C35.2267856,26.8295349 27.7885614,34 18.6755853,34 C9.56260915,34 2.12438491,26.8295349 1.69514971,17.8228419 L0,17.8228832 L0,16.1771168 L1.69514971,16.1771581 C2.12438491,7.1704651 9.56260915,0 18.6755853,0 Z M32.5947936,17.8222573 L4.75637691,17.8222573 C5.18194455,25.1400509 11.2510832,30.9430516 18.6755853,30.9430516 C26.1000873,30.9430516 32.169226,25.1400509 32.5947936,17.8222573 Z M18.6755853,3.05694845 C11.2510832,3.05694845 5.18194455,8.85994905 4.75637691,16.1777427 L32.5947936,16.1777427 C32.169226,8.85994905 26.1000873,3.05694845 18.6755853,3.05694845 Z" id="Combined-Shape"></path>
                <path d="M10.4930464,25.0735907 C10.1342134,25.0735907 9.81271677,25.0152872 9.52855639,24.8988642 C9.244396,24.7824413 9.01725162,24.6099219 8.84712323,24.381674 C8.67699485,24.153426 8.58742455,23.8784618 8.5780445,23.5569651 L9.85005306,23.5569651 C9.86862924,23.7386806 9.93153076,23.8773582 10.0387576,23.9728141 C10.1459845,24.0682699 10.2857656,24.1160897 10.4581011,24.1160897 C10.6352185,24.1160897 10.7749997,24.0752589 10.8774446,23.9937812 C10.9798895,23.9123035 11.0312039,23.7991911 11.0312039,23.6548119 C11.0312039,23.5336069 10.990373,23.4335531 10.9088953,23.3542824 C10.8274176,23.2750118 10.7271798,23.2099032 10.6083659,23.1585888 C10.4895519,23.1072744 10.3207109,23.0491549 10.1016591,22.9838623 C9.78476054,22.8860155 9.5261654,22.7881687 9.32587371,22.6903219 C9.12558202,22.5924751 8.95306264,22.4480959 8.80868341,22.2570003 C8.66430419,22.0659048 8.59202261,21.8166897 8.59202261,21.5091711 C8.59202261,21.0524913 8.75736901,20.6949458 9.08824573,20.4363507 C9.41912245,20.1777556 9.85005306,20.048458 10.3812215,20.048458 C10.9217699,20.048458 11.3572986,20.1777556 11.6881753,20.4363507 C12.019052,20.6949458 12.1959856,21.0548823 12.2193437,21.5161602 L10.926368,21.5161602 C10.9169879,21.3578028 10.8588684,21.2331033 10.7516415,21.1422456 C10.6444147,21.0513878 10.5070245,21.0059589 10.3392871,21.0059589 C10.1949079,21.0059589 10.078301,21.0443987 9.98983422,21.1212784 C9.90136746,21.198158 9.85704212,21.3088794 9.85704212,21.4532586 C9.85704212,21.611616 9.93153076,21.735212 10.080692,21.8236787 C10.2298532,21.9121455 10.4626992,22.0077852 10.7795978,22.1102301 C11.0964964,22.217457 11.3538041,22.3199018 11.5518887,22.4177486 C11.7499733,22.5155955 11.9212052,22.6577676 12.0655844,22.8440812 C12.2099637,23.0303948 12.2822452,23.2704137 12.2822452,23.5639542 C12.2822452,23.8435165 12.2112511,24.0975136 12.069079,24.3257615 C11.9269068,24.5540094 11.7207296,24.7357249 11.4505473,24.870908 C11.1803651,25.0060911 10.8610755,25.0735907 10.4930464,25.0735907 M15.3364636,23.9832976 C15.7278509,23.9832976 16.0412549,23.8528965 16.2764919,23.5919104 C16.5117289,23.3309243 16.6294393,22.9862533 16.6294393,22.5575298 C16.6294393,22.1242082 16.5117289,21.7782498 16.2764919,21.5196547 C16.0412549,21.2610595 15.7278509,21.131762 15.3364636,21.131762 C14.9404783,21.131762 14.6246832,21.259956 14.3894462,21.5161602 C14.1542093,21.7723643 14.0364988,22.1196101 14.0364988,22.5575298 C14.0364988,22.9908514 14.1542093,23.3368098 14.3894462,23.5954049 C14.6246832,23.8540001 14.9404783,23.9832976 15.3364636,23.9832976 M15.3364636,25.0735907 C14.8751858,25.0735907 14.4523478,24.9663638 14.0679496,24.752094 C13.6835514,24.5378242 13.3784238,24.2383983 13.152383,23.8540001 C12.9263421,23.4696019 12.8134137,23.0373838 12.8134137,22.5575298 C12.8134137,22.0776758 12.9263421,21.6465613 13.152383,21.2645541 C13.3784238,20.8825469 13.6835514,20.5842245 14.0679496,20.3699546 C14.4523478,20.1556848 14.8751858,20.048458 15.3364636,20.048458 C15.7977414,20.048458 16.2205794,20.1556848 16.6049776,20.3699546 C16.9893758,20.5842245 17.2922963,20.8825469 17.5135552,21.2645541 C17.734814,21.6465613 17.8455354,22.0776758 17.8455354,22.5575298 C17.8455354,23.0373838 17.7337105,23.4696019 17.5100606,23.8540001 C17.2864108,24.2383983 16.9834903,24.5378242 16.6014831,24.752094 C16.2194759,24.9663638 15.7977414,25.0735907 15.3364636,25.0735907 M18.3068133,22.5645189 C18.3068133,22.0798829 18.4116491,21.6478487 18.6213209,21.2680486 C18.8309926,20.8882485 19.1234295,20.592501 19.4984477,20.3804382 C19.8734658,20.1683755 20.2986948,20.0624361 20.7739507,20.0624361 C21.3564335,20.0624361 21.8548637,20.2161954 22.2696092,20.5237139 C22.6843546,20.8312325 22.9615259,21.250576 23.1013071,21.7817444 L21.7873642,21.7817444 C21.6895173,21.5766707 21.5508397,21.4207043 21.3715152,21.3134775 C21.1921907,21.2062506 20.9882205,21.1527291 20.7599726,21.1527291 C20.3919435,21.1527291 20.0936211,21.2809232 19.8653732,21.5371273 C19.6371253,21.7933315 19.5229094,22.1357953 19.5229094,22.5645189 C19.5229094,22.9932424 19.6371253,23.3357062 19.8653732,23.5919104 C20.0936211,23.8481145 20.3919435,23.9763086 20.7599726,23.9763086 C20.9882205,23.9763086 21.1921907,23.9227871 21.3715152,23.8155603 C21.5508397,23.7083334 21.6895173,23.552367 21.7873642,23.3472934 L23.1013071,23.3472934 C22.9615259,23.8784618 22.6843546,24.2967017 22.2696092,24.6018293 C21.8548637,24.9069568 21.3564335,25.0596126 20.7739507,25.0596126 C20.2986948,25.0596126 19.8734658,24.9536732 19.4984477,24.7416104 C19.1234295,24.5295477 18.8309926,24.2349037 18.6213209,23.8574946 C18.4116491,23.4800855 18.3068133,23.0491549 18.3068133,22.5645189 M25.1560901,24.0671663 C25.3144475,23.9413633 25.386729,23.8830598 25.3727509,23.8924399 C25.8294307,23.5150308 26.1893672,23.2051212 26.4525604,22.9628952 C26.7157536,22.7206691 26.9382999,22.4666721 27.1200154,22.2010879 C27.3017309,21.9355036 27.3925887,21.6769085 27.3925887,21.4253024 C27.3925887,21.2342069 27.3482633,21.0852296 27.2597966,20.9780027 C27.1713298,20.8707758 27.0385377,20.8172544 26.8614203,20.8172544 C26.6843028,20.8172544 26.5458091,20.8836504 26.4455713,21.0164425 C26.3453335,21.1492346 26.2953066,21.3368356 26.2953066,21.5790617 L25.142112,21.5790617 C25.1514921,21.1830764 25.2364643,20.8521997 25.3972126,20.5866154 C25.557961,20.3210312 25.7700237,20.1253376 26.0332169,19.9995346 C26.2964101,19.8737315 26.588847,19.81083 26.9103437,19.81083 C27.4648703,19.81083 27.8829263,19.9530022 28.1648796,20.2371625 C28.4468329,20.5213229 28.5877176,20.891743 28.5877176,21.3484228 C28.5877176,21.8470369 28.4175892,22.3094182 28.0775164,22.7357508 C27.7374435,23.1620833 27.3041219,23.5779323 26.7775516,23.9832976 L28.6645972,23.9832976 L28.6645972,24.9547767 L25.1560901,24.9547767 L25.1560901,24.0671663 Z M11.4118852,12.1689199 L10.641614,9.96717121 L9.86452619,12.1689199 L11.4118852,12.1689199 Z M11.6300151,12.80286 L9.64639628,12.80286 L9.30556831,13.7708114 L8.49439773,13.7708114 L10.191721,9.026486 L11.0915069,9.026486 L12.7888302,13.7708114 L11.9708431,13.7708114 L11.6300151,12.80286 Z M13.5249469,13.7708832 L14.3020347,13.7708832 L14.3020347,9.03337431 L13.5249469,9.03337431 L13.5249469,13.7708832 Z M15.0655611,11.3918321 C15.0655611,10.9283061 15.1735497,10.512496 15.3893476,10.1444018 C15.6051456,9.77630754 15.8982576,9.48893574 16.2686838,9.28210698 C16.63911,9.07527821 17.0446953,8.97195352 17.4854397,8.97195352 C17.9898651,8.97195352 18.4386817,9.09572789 18.8317102,9.34345601 C19.2247387,9.59118414 19.5099579,9.94223695 19.6871884,10.3966145 L18.7533198,10.3966145 C18.6306217,10.1467337 18.4602077,9.96035465 18.2420778,9.83765658 C18.0239479,9.71495851 17.7717352,9.65360947 17.4854397,9.65360947 C17.171878,9.65360947 16.892399,9.72410705 16.6470029,9.86492281 C16.4016067,10.0057386 16.2096668,10.2080828 16.0710036,10.4715966 C15.9323404,10.7351104 15.8630985,11.0418556 15.8630985,11.3918321 C15.8630985,11.7418087 15.9323404,12.0485538 16.0710036,12.3120677 C16.2096668,12.5755815 16.4016067,12.779002 16.6470029,12.9221497 C16.892399,13.0652975 17.171878,13.1368714 17.4854397,13.1368714 C17.7717352,13.1368714 18.0239479,13.0755223 18.2420778,12.9528243 C18.4602077,12.8301262 18.6306217,12.6437471 18.7533198,12.3938664 L19.6871884,12.3938664 C19.5099579,12.8482439 19.2247387,13.1982204 18.8317102,13.4436165 C18.4386817,13.6890127 17.9898651,13.8117108 17.4854397,13.8117108 C17.0400313,13.8117108 16.6333698,13.7083861 16.2652755,13.5015573 C15.8971813,13.2947285 15.6051456,13.0073567 15.3893476,12.6392625 C15.1735497,12.2711683 15.0655611,11.8553582 15.0655611,11.3918321 M22.2297651,11.2146016 C22.5252091,11.2146016 22.7454916,11.1475123 22.8909714,11.0135131 C23.0364511,10.8795139 23.1091013,10.6897265 23.1091013,10.4443304 C23.1091013,9.92627185 22.8159892,9.66724259 22.2297651,9.66724259 L21.3708786,9.66724259 L21.3708786,11.2146016 L22.2297651,11.2146016 Z M23.9066387,10.4443304 C23.9066387,10.6852419 23.8497743,10.912341 23.7362247,11.1259863 C23.6226752,11.3396316 23.4407807,11.5134539 23.1909,11.6474531 C22.9410193,11.7814523 22.620641,11.8485416 22.2297651,11.8485416 L21.3708786,11.8485416 L21.3708786,13.7708114 L20.5937908,13.7708114 L20.5937908,9.03330256 L22.2297651,9.03330256 C22.5933747,9.03330256 22.9011962,9.09572789 23.1534089,9.22075794 C23.4056216,9.34578799 23.5941533,9.5149463 23.7191833,9.72859162 C23.8442134,9.94223695 23.9066387,10.1808165 23.9066387,10.4443304 L23.9066387,10.4443304 Z M27.2876522,12.1689199 L26.517381,9.96717121 L25.7402932,12.1689199 L27.2876522,12.1689199 Z M27.5057821,12.80286 L25.5221633,12.80286 L25.1813353,13.7708114 L24.3701648,13.7708114 L26.0674881,9.026486 L26.9672739,9.026486 L28.6645972,13.7708114 L27.8466101,13.7708114 L27.5057821,12.80286 Z"></path>
            </g>
        </g>
    </g>
</svg>