<?xml version="1.0" encoding="UTF-8"?>
<svg width="125px" height="77px" viewBox="0 0 125 77" version="1.1" xmlns="http://www.w3.org/2000/svg" xmlns:xlink="http://www.w3.org/1999/xlink">
    <title>logo/thoughtworks</title>
    <g id="logo/thoughtworks" stroke="none" stroke-width="1" fill="none" fill-rule="evenodd">
        <path d="M14.8445066,32.0833903 L14.8445066,35.0215946 L17.1407423,35.0215946 L16.223471,36.8243054 L14.8383914,36.8243054 L14.8383914,41.6692818 C14.7990173,41.9927483 14.8795201,42.3194376 15.0646517,42.5874707 C15.3325353,42.7725243 15.6587971,42.8530827 15.9819229,42.8139573 C16.1317439,42.8139573 16.2785073,42.807836 16.4191556,42.7955935 C16.5527404,42.7845983 16.685499,42.7651757 16.8166398,42.7374415 L16.8166398,44.8247908 C16.5665911,44.8649037 16.3144269,44.8904519 16.0614198,44.9013066 C15.7862384,44.9197651 15.5141146,44.9197651 15.2481059,44.9197651 C14.8520636,44.9216366 14.4564608,44.8929856 14.064826,44.8339727 C13.7160674,44.7860404 13.3791681,44.6739742 13.0711155,44.5034247 C12.7858061,44.3360259 12.5528421,44.0922291 12.3984499,43.79948 C12.21947,43.4279982 12.1354211,43.0178496 12.1538442,42.6058345 L12.1538442,36.8212447 L9.89124177,36.8212447 L10.808513,35.0215946 L12.1569018,35.0215946 L12.1569018,32.0833903 L14.8445066,32.0833903 Z M12.1874775,28.4779688 L3.86476958,44.8247908 L0,44.8247908 L8.31965034,28.4779688 L12.1874775,28.4779688 Z M56.2012102,35.0215946 L55.5346597,36.3284834 L55.4949113,36.3284834 C55.2193275,35.8067001 54.7931448,35.3800911 54.2718829,35.1042316 C53.7450859,34.861857 53.1698081,34.7435453 52.590219,34.7583805 C51.9648356,34.7452423 51.3453449,34.8816456 50.7831946,35.1562623 C50.2698733,35.4108978 49.8196916,35.7768403 49.4653815,36.2274826 C49.1022535,36.690654 48.829458,37.2181017 48.6612404,37.7822824 C48.4762851,38.376731 48.3834796,38.9960531 48.386059,39.6186601 C48.3818844,40.2583603 48.4589409,40.8959983 48.6153768,41.5162504 C48.7580616,42.0852936 49.0127342,42.6201209 49.3644817,43.0894139 C49.7094028,43.5420347 50.1569072,43.9060613 50.6700645,44.1514523 C51.2640392,44.4241631 51.9125043,44.5571267 52.5657584,44.5401523 C53.1507349,44.542982 53.7291246,44.4165287 54.2596527,44.1698161 C54.7878221,43.9336098 55.2239356,43.5303927 55.5010264,43.0220801 L55.5377173,43.0220801 L55.5377173,44.3136657 C55.5377173,45.8439805 54.8222457,46.7193205 53.3974177,46.7193205 C51.9725897,46.7193205 51.2143121,46.1071946 50.8107127,45.6052514 L49.8384052,47.5303873 C49.8384052,47.5303873 50.9391307,48.5220313 53.0213365,48.5220313 C56.473334,48.5220313 58.0938465,46.8417457 58.0938465,44.1973618 L58.0938465,35.0154733 L56.2012102,35.0215946 Z M55.3940115,40.8153662 C55.3038828,41.1263149 55.1589129,41.4186177 54.9659515,41.6784637 C54.7749128,41.9334683 54.5294391,42.1425911 54.2474224,42.2905896 C53.9364761,42.4465268 53.5922515,42.5242649 53.2445391,42.5170762 C52.8786158,42.5308129 52.5165302,42.4383409 52.2019075,42.2508014 C51.9276774,42.0787973 51.6973444,41.8450898 51.5292419,41.5682811 C51.3537612,41.2806335 51.2325075,40.9631913 51.1715061,40.6317284 C51.1008189,40.2852312 51.0649684,39.9325197 51.0644778,39.5788719 C51.0636185,39.2241381 51.1057124,38.8706067 51.1898515,38.5260154 C51.2654077,38.2068202 51.4002447,37.9046909 51.5873357,37.6353722 C51.765552,37.3824357 51.9986566,37.173164 52.269174,37.0232463 C52.5690731,36.8640919 52.9052694,36.7860247 53.2445391,36.7967597 C53.6254348,36.7818732 54.0036654,36.8662429 54.3422071,37.0416101 C54.6236933,37.1996942 54.8620426,37.4246183 55.0362757,37.6965848 C55.2193989,37.990378 55.3478515,38.3149417 55.4154145,38.6545618 C55.4931466,39.0310895 55.5310656,39.4147621 55.5285446,39.7992372 C55.5324838,40.1426446 55.4871778,40.4848411 55.3940115,40.8153662 Z M20.3450766,31.2876266 L20.3450766,36.3866353 L20.4031704,36.3866353 C20.7062299,35.8532235 21.1606031,35.4218295 21.7087532,35.1470804 C22.1885952,34.8995083 22.7191708,34.7664698 23.2589416,34.7583805 C23.8644631,34.7421739 24.4671938,34.846197 25.0323327,35.0644434 C25.4595239,35.236795 25.8346211,35.5173446 26.1208279,35.8785708 C26.3971594,36.2559677 26.5871441,36.689608 26.6773058,37.1487321 C26.7894544,37.6944422 26.8437721,38.2504735 26.8393571,38.8075933 L26.8393571,44.8370333 L24.1548099,44.8370333 L24.1548099,39.2881121 C24.196733,38.6617594 24.0655596,38.0359444 23.7756711,37.4792801 C23.5249503,37.0783376 23.0754874,36.8671542 22.4333975,36.8671542 C21.6995805,36.8671542 21.1706207,37.0875195 20.8404031,37.5221289 C20.5101854,37.9567383 20.3481341,38.6759862 20.3481341,39.6645695 L20.3481341,44.8247908 L17.6574718,44.8247908 L17.6574718,31.2876266 L20.3450766,31.2876266 Z M27.9676008,37.8006462 C28.1879082,37.1902019 28.5361067,36.6339881 28.9888294,36.1693306 C29.4413511,35.715549 29.9826406,35.360233 30.5787663,35.125656 C31.9278346,34.6349904 33.4063398,34.6349904 34.7554081,35.125656 C35.9802182,35.5878939 36.9397341,36.5662806 37.3788039,37.8006462 C37.6273486,38.4871191 37.7495872,39.2129887 37.7395973,39.9430868 C37.7487866,40.6671379 37.6265387,41.3868408 37.3788039,42.0671637 C37.1546353,42.6720991 36.8068107,43.223546 36.3575752,43.6862367 C35.9019857,44.1346624 35.3556552,44.4801133 34.7554081,44.699305 C33.4031243,45.1774943 31.9279924,45.1774943 30.5757087,44.699305 C29.9783494,44.4714151 29.4363419,44.1187578 28.9857719,43.6648123 C28.5345135,43.2037198 28.1864006,42.6518158 27.9645432,42.0457393 C27.7153439,41.3658055 27.5930498,40.6458307 27.6037498,39.9216624 C27.5958424,39.1984446 27.7191237,38.4797942 27.9676008,37.8006462 L27.9676008,37.8006462 Z M30.4136574,41.0785803 C30.4812658,41.4349539 30.6128284,41.7761145 30.8019689,42.0855274 C30.9811067,42.3796406 31.2313743,42.623843 31.5296708,42.7955935 C31.8782621,42.9844063 32.2709992,43.076348 32.6670872,43.0618682 C33.065002,43.0750862 33.4593853,42.9832529 33.8106187,42.7955935 C34.1137942,42.6260418 34.3685328,42.3815853 34.5505508,42.0855274 C34.7385589,41.7755558 34.8700402,41.4346059 34.9388623,41.0785803 C35.015377,40.701868 35.0532834,40.3183223 35.0520243,39.9339049 C35.0528364,39.5454581 35.0149384,39.1578971 34.9388623,38.776987 C34.8715158,38.4205387 34.7399354,38.0793321 34.5505508,37.7700399 C34.3648285,37.4727146 34.1098895,37.2248718 33.8075611,37.0477313 C33.4574372,36.8565682 33.0626438,36.7625261 32.6640296,36.7753353 C31.9092491,36.7350776 31.1931745,37.1122742 30.7989114,37.7577973 C30.6082756,38.066469 30.4766032,38.4079143 30.4105999,38.7647445 C30.3335173,39.1455543 30.2945952,39.5331142 30.2943886,39.9216624 C30.2932904,40.3102753 30.3322257,40.6979671 30.4105999,41.0785803 L30.4136574,41.0785803 Z M45.0777673,44.8247908 L45.0777673,43.4750532 L45.0227311,43.4750532 C44.7145829,44.0083331 44.2518075,44.435281 43.6957453,44.699305 C43.1744941,44.9453256 42.6056541,45.0738344 42.0293692,45.0757624 C41.4267696,45.0949628 40.8260108,44.99941 40.2590356,44.7941845 C39.829595,44.6288633 39.4532812,44.34952 39.1705404,43.9861784 C38.8914343,43.6100333 38.7002236,43.1759794 38.611005,42.7160171 C38.4988564,42.170307 38.4445386,41.6142757 38.4489537,41.0571559 L38.4489537,35.0215946 L41.1396161,35.0215946 L41.1396161,40.5582733 C41.097759,41.1856026 41.2289131,41.8123837 41.5187548,42.370166 C41.7694757,42.7680478 42.2179194,42.9720898 42.864086,42.9822919 C43.5958647,42.9822919 44.1258436,42.763967 44.4540229,42.3273172 C44.781183,41.8927078 44.9462918,41.1734599 44.9462918,40.1848765 L44.9462918,35.0215946 L47.6338966,35.0215946 L47.6338966,44.8156089 L45.0777673,44.8247908 Z M95.5980108,35.125656 C96.8211976,35.5903842 97.7798194,36.5678592 98.2214066,37.8006462 C98.4699513,38.4871191 98.5921899,39.2129887 98.5822,39.9430868 C98.5913894,40.6671379 98.4691414,41.3868408 98.2214066,42.0671637 C97.9975628,42.672973 97.6485307,43.2246825 97.1971204,43.6862367 C96.7440844,44.1349023 96.199683,44.4804523 95.6010684,44.699305 C94.2487847,45.1774943 92.7736528,45.1774943 91.421369,44.699305 C90.8236237,44.4721759 90.2814643,44.1194198 89.8314322,43.6648123 C89.3800219,43.2032581 89.0309898,42.6515486 88.8071459,42.0457393 C88.5604524,41.365223 88.4392414,40.6455258 88.4494101,39.9216624 C88.4419968,39.1987486 88.5641966,38.4803659 88.8102035,37.8006462 C89.2512283,36.5717256 90.204213,35.5954471 91.421369,35.125656 C92.7704373,34.6349904 94.2489425,34.6349904 95.5980108,35.125656 Z M61.7873921,31.2876266 L61.7873921,36.3866353 L61.8424284,36.3866353 C62.1471748,35.8534636 62.6024254,35.4222465 63.1510688,35.1470804 C63.6309108,34.8995083 64.1614863,34.7664698 64.7012572,34.7583805 C65.3067787,34.7421739 65.9095093,34.846197 66.4746483,35.0644434 C66.9037903,35.2319783 67.2820506,35.5083107 67.5723162,35.8663283 C67.7421278,36.0987076 67.8797088,36.3520729 67.9819931,36.6194641 L68.7953446,35.0215946 L70.1406758,35.0215946 L70.1406758,32.0833903 L72.8313381,32.0833903 L72.8313381,35.0215946 L75.2468191,35.0215946 L74.3295479,36.8243054 L72.8282806,36.8243054 L72.8282806,41.6692818 C72.7889064,41.9927483 72.8694093,42.3194376 73.0545408,42.5874707 C73.322306,42.7727874 73.6486688,42.8533708 73.9718121,42.8139573 C74.1246906,42.8139573 74.2683964,42.807836 74.399872,42.7955935 C74.5334568,42.7845983 74.6662154,42.7651757 74.7973562,42.7374415 L74.7973562,44.8247908 C74.5462968,44.8650217 74.2931083,44.8905703 74.0390786,44.9013066 C73.7608397,44.9197651 73.4917734,44.9197651 73.2257648,44.9197651 C72.8297224,44.9216366 72.4341197,44.8929856 72.0424848,44.8339727 C71.69677,44.7854222 71.3629899,44.6733591 71.057947,44.5034247 C70.7719186,44.3369381 70.5387314,44.0929076 70.3852814,43.79948 C70.2351517,43.490172 70.1510268,43.1537646 70.1373413,42.8116309 L70.1376182,36.8212447 L68.0514447,36.8205988 C68.0834664,36.9242595 68.1103242,37.0296822 68.1318517,37.1364896 C68.2429286,37.6823156 68.2962209,38.238341 68.2908454,38.7953507 L68.2908454,44.8247908 L65.6032406,44.8247908 L65.6032406,39.2881121 C65.6437474,38.6618596 65.5126532,38.0364226 65.2241018,37.4792801 C64.9713426,37.0711961 64.5228989,36.8671542 63.8787706,36.8671542 C63.1449536,36.8671542 62.6159939,37.0875195 62.2888338,37.5221289 C61.9616737,37.9567383 61.7965649,38.6759862 61.7965649,39.6645695 L61.7965649,44.8247908 L59.1059025,44.8247908 L59.1059025,31.2876266 L61.7873921,31.2876266 Z M82.6889466,35.0246552 L84.3553227,41.6570393 L84.3920136,41.6570393 L86.1929228,35.0246552 L88.9569669,35.0246552 L85.8718779,44.8247908 L83.1047763,44.8247908 L81.3619609,38.2444374 L81.32527,38.2444374 L79.6588939,44.8247908 L76.8765044,44.8247908 L74.8585076,38.4617421 L76.6104957,35.0246552 L78.4083474,41.6784637 L78.4450382,41.6784637 L80.0747235,35.0246552 L82.6889466,35.0246552 Z M93.5096899,36.7753353 C93.1128892,36.761206 92.7197201,36.8553648 92.3722736,37.0477313 C92.0770729,37.2246209 91.8269215,37.4676886 91.6415141,37.7577973 C91.4521295,38.0670896 91.3205492,38.4082962 91.2532026,38.7647445 C91.1786376,39.1458777 91.1407542,39.5332899 91.1400659,39.9216624 C91.1394915,40.3100966 91.1773869,40.6976316 91.2532026,41.0785803 C91.3250823,41.4346059 91.4565637,41.7755558 91.6445717,42.0855274 C91.8256859,42.3791164 92.0767828,42.6231029 92.3753311,42.7955935 C92.7239224,42.9844063 93.1166595,43.076348 93.5127475,43.0618682 C93.9106623,43.0750862 94.3050456,42.9832529 94.656279,42.7955935 C94.9588096,42.6251706 95.2133507,42.3809036 95.3962112,42.0855274 C95.5842192,41.7755558 95.7157005,41.4346059 95.7845227,41.0785803 C95.8610373,40.701868 95.8989438,40.3183223 95.8976847,39.9339049 C95.8984967,39.5454581 95.8605988,39.1578971 95.7845227,38.776987 C95.7171761,38.4205387 95.5855957,38.0793321 95.3962112,37.7700399 C95.2096433,37.4733992 94.9548909,37.2257378 94.6532214,37.0477313 C94.3030976,36.8565682 93.9083042,36.7625261 93.5096899,36.7753353 Z M120.410198,34.7644559 C120.928603,34.7627193 121.44588,34.8129607 121.954272,34.9144726 C122.426599,35.0051816 122.879036,35.1792902 123.29043,35.4286583 C123.683253,35.6693651 124.016674,35.9957961 124.265795,36.3835747 C124.543071,36.840288 124.702762,37.3587523 124.730546,37.892465 L122.174417,37.892465 C122.185176,37.4606116 121.960209,37.0571424 121.587363,36.8396085 C121.198812,36.648164 120.76976,36.553657 120.336817,36.5641519 C120.17236,36.5647612 120.008048,36.5739556 119.844548,36.5916975 C119.678152,36.6091041 119.515307,36.6514036 119.361452,36.7171833 C119.217232,36.7768965 119.0901,36.8715524 118.991486,36.99264 C118.885105,37.1293895 118.831874,37.3001157 118.841665,37.4731588 C118.833375,37.6992895 118.930541,37.9164351 119.104616,38.0607997 C119.308647,38.2281349 119.543384,38.3539386 119.795627,38.4311358 C120.115527,38.535579 120.441192,38.6214199 120.770992,38.6882287 C121.1379,38.7657647 121.510924,38.8484017 121.890063,38.9361397 C122.276898,39.0219518 122.658666,39.1292396 123.033594,39.2575058 C123.387974,39.3743028 123.722915,39.5434879 124.027305,39.759449 C124.315914,39.963734 124.556019,40.2291579 124.730546,40.5368489 C124.918406,40.8893911 125.010155,41.2852572 124.996555,41.684585 C125.048443,42.7643125 124.511148,43.7872479 123.59313,44.3565145 C123.156299,44.6308581 122.671979,44.8208348 122.165244,44.9166097 C121.625493,45.0233207 121.076564,45.0766282 120.526386,45.0757901 C119.966619,45.0772242 119.408198,45.0208134 118.86001,44.9074278 C118.346263,44.8044786 117.855297,44.6095546 117.410721,44.3320295 C116.475756,43.7591896 115.911178,42.7358864 115.924742,41.6386755 L118.480871,41.6386755 C118.472613,41.9003107 118.534929,42.1593403 118.661268,42.3885298 C118.775786,42.5907867 118.933421,42.7652993 119.122961,42.8996549 C119.321336,43.0394919 119.542854,43.1431085 119.777281,43.2057178 C120.028006,43.2699909 120.285919,43.3018765 120.544732,43.3005973 C120.745331,43.2999733 120.945262,43.2773945 121.140958,43.2332635 C121.339982,43.1931889 121.53175,43.1230102 121.709666,43.0251407 C121.878294,42.9325934 122.02364,42.8028026 122.134668,42.6456226 C122.257299,42.4659162 122.317467,42.2508182 122.305892,42.0334967 C122.305892,41.6294936 122.036826,41.3264913 121.501751,41.1153079 C120.769236,40.857857 120.019229,40.653291 119.257494,40.503182 C118.866125,40.4144237 118.483929,40.3103623 118.110905,40.197119 C117.755236,40.0920184 117.416471,39.9363811 117.104964,39.734964 C116.818704,39.5441497 116.579324,39.2909273 116.404781,38.9942917 C116.218607,38.6621358 116.126626,38.2853776 116.138772,37.9047076 C116.115878,37.3621463 116.243959,36.8238799 116.508738,36.3499078 C116.746741,35.9523997 117.082545,35.6225816 117.484103,35.3919308 C117.911533,35.1520829 118.376929,34.9874783 118.86001,34.9052907 C119.371255,34.8103073 119.890224,34.7631743 120.410198,34.7644559 Z M109.68424,31.2876266 L109.68424,38.5505004 L113.072028,35.0215946 L116.25496,35.0215946 L112.561414,38.6239555 L116.673847,44.8247908 L113.414476,44.8247908 L110.726871,40.44503 L109.68424,41.4489165 L109.68424,44.8156089 L106.993577,44.8156089 L106.993577,31.2876266 L109.68424,31.2876266 Z M104.896084,34.7583435 C102.636539,34.7583435 101.771246,36.8426691 101.771246,36.8426691 L101.734556,36.8426691 L101.734556,35.0215946 L99.1784263,35.0215946 L99.1784263,44.8156089 L101.866031,44.8156089 L101.866031,40.7204867 L101.866031,40.7204867 C101.866031,38.3331957 102.330782,37.2680966 104.364067,37.2680966 C104.730074,37.2627958 105.09161,37.3490623 105.415871,37.5190682 L106.568575,35.2542024 C106.071911,34.9279047 105.490158,34.7554398 104.896084,34.7583435 Z" id="Combined-Shape" fill="#6C7285" fill-rule="nonzero"></path>
    </g>
</svg>