<svg id="Layer_1" xmlns="http://www.w3.org/2000/svg" version="1.1" viewBox="0 0 270.7 78">
    <!-- Generator: Adobe Illustrator 29.0.1, SVG Export Plug-In . SVG Version: 2.1.0 Build 192)  -->
    <defs>
        <style>
            .st0 {
            fill: #fff;
            }
        </style>
    </defs>
    <g id="Treblle_Logo_-_Color">
        <g id="Typo">
            <path class="st0" d="M117.2,48.9v8.4h-5.1c-3.6,0-6.4-.9-8.4-2.6-2-1.8-3-4.6-3-8.6v-12.9h-4v-8.3h4v-2.3l9.9-7.5v9.8h6.5v8.3h-6.5v13c0,1,.2,1.7.7,2.1.5.4,1.2.6,2.3.6h3.5Z"></path>
            <path class="st0" d="M134.4,26.1c1.7-1,3.7-1.5,5.8-1.5v10.5h-2.7c-2.5,0-4.3.5-5.6,1.6-1.2,1.1-1.9,2.9-1.9,5.6v15.1h-9.9V24.9h9.9v5.4c1.2-1.8,2.6-3.2,4.4-4.2h0Z"></path>
            <path class="st0" d="M172.9,43.5h-22.5c.2,2,.8,3.6,1.9,4.6,1.1,1.1,2.5,1.6,4.2,1.6,2.5,0,4.2-1,5.2-3.1h10.6c-.5,2.1-1.5,4.1-2.9,5.8-1.4,1.7-3.2,3-5.3,4-2.1,1-4.5,1.5-7.2,1.5s-6-.7-8.5-2c-2.5-1.4-4.4-3.3-5.8-5.8-1.4-2.5-2.1-5.5-2.1-8.8s.7-6.3,2.1-8.8c1.4-2.5,3.3-4.5,5.8-5.8,2.5-1.4,5.3-2,8.5-2s5.9.7,8.4,2c2.4,1.3,4.4,3.2,5.7,5.6,1.4,2.4,2.1,5.3,2.1,8.5s0,1.9-.2,2.9h0ZM162.9,37.9c0-1.7-.6-3.1-1.7-4.1-1.2-1-2.6-1.5-4.4-1.5s-3.1.5-4.2,1.5c-1.1,1-1.9,2.3-2.1,4.1h12.4Z"></path>
            <path class="st0" d="M189.4,25.8c1.7-.9,3.7-1.4,6-1.4s5.1.7,7.3,2c2.2,1.4,3.9,3.3,5.1,5.8,1.3,2.5,1.9,5.4,1.9,8.8s-.6,6.3-1.9,8.8-3,4.5-5.1,5.9c-2.2,1.4-4.6,2.1-7.3,2.1s-4.3-.5-6-1.4c-1.7-.9-3-2.1-4-3.6v4.5h-9.9V16.1h9.9v13.3c.9-1.5,2.3-2.7,4-3.7ZM197.6,35.2c-1.4-1.4-3.1-2.1-5.1-2.1s-3.7.7-5,2.2c-1.4,1.4-2.1,3.4-2.1,5.9s.7,4.4,2.1,5.9c1.4,1.4,3.1,2.2,5,2.2s3.7-.7,5.1-2.2c1.4-1.5,2.1-3.4,2.1-5.9s-.7-4.4-2.1-5.8h0Z"></path>
            <path class="st0" d="M222.1,16.1v41.2h-9.9V16.1h9.9Z"></path>
            <path class="st0" d="M235.7,16.1v41.2h-9.9V16.1h9.9Z"></path>
            <path class="st0" d="M270.5,43.5h-22.5c.2,2,.8,3.6,1.9,4.6,1.1,1.1,2.5,1.6,4.2,1.6,2.5,0,4.2-1,5.2-3.1h10.6c-.5,2.1-1.5,4.1-2.9,5.8-1.4,1.7-3.2,3-5.3,4-2.1,1-4.5,1.5-7.2,1.5s-6-.7-8.5-2c-2.5-1.4-4.4-3.3-5.8-5.8-1.4-2.5-2.1-5.5-2.1-8.8s.7-6.3,2.1-8.8c1.4-2.5,3.3-4.5,5.8-5.8,2.5-1.4,5.3-2,8.5-2s5.9.7,8.4,2c2.4,1.3,4.4,3.2,5.7,5.6,1.4,2.4,2.1,5.3,2.1,8.5s0,1.9-.2,2.9h0ZM260.5,37.9c0-1.7-.6-3.1-1.7-4.1-1.2-1-2.6-1.5-4.4-1.5s-3.1.5-4.2,1.5c-1.1,1-1.9,2.3-2.1,4.1h12.4Z"></path>
        </g>
        <path class="st0" d="M0,0v39.3c0,21.4,17.4,38.7,39,38.7s39-17.3,39-38.7V0H0ZM59.3,29.1h-11.1v30.8h-16.9v-30.8H14.5l16.9-14.1v14.1l16.9-14.1h11.1v14.1Z"></path>
    </g>
</svg>