<svg xmlns="http://www.w3.org/2000/svg" width="125" height="77" xmlns:v="https://vecta.io/nano"><path d="M7.233 27.14v.537c-1.452 0-2.34.188-2.34 2.209v8.969c0 2.747.647 5.438 4.142 5.438 3.879 0 4.494-2.234 4.494-5.438v-8.969c0-2.021-.886-2.209-2.338-2.209v-.537h6.214v.537c-1.479 0-2.34.188-2.34 2.209v8.969c0 3.689-.539 6.49-6.135 6.49-5.567 0-6.431-2.693-6.431-6.49v-8.969c0-2.021-.859-2.209-2.34-2.209v-.537h7.075zm17.301-.27c2.153 0 3.982.431 5.168.753l.241 4.23h-.672c-.352-1.509-1.425-3.933-4.764-3.933-4.329 0-4.681 4.606-4.681 7.38 0 3.475.755 8.834 6.648 8.834 1.801 0 2.771-.404 3.47-.673v1.158c-1.319.486-2.825.728-4.816.728-5.38 0-7.964-4.093-7.964-9.83 0-4.983 1.612-8.646 7.371-8.646zm19.861 4.147c-.244-1.426-1.321-3.098-4.199-3.098-1.804 0-3.391 1.158-3.391 2.936 0 2.397 3.204 3.178 5.545 4.552 2.126 1.239 3.549 2.343 3.549 4.902 0 3.42-2.961 5.036-6.645 5.036-1.829 0-3.953-.404-4.627-.513l-.189-3.797h.674c.214 1.427 1.479 3.098 4.359 3.098 2.368 0 3.901-1.535 3.901-3.395 0-2.907-4.467-3.796-6.97-5.709-1.181-.915-1.748-1.884-1.748-3.609 0-3.231 2.666-4.55 6.052-4.55 1.806 0 2.961.216 4.173.457l.187 3.69h-.672zm6.949 2.799c3.279 0 3.876 1.58 3.876 3.808v5.943c0 .839.286 1.125 1.03 1.125.214 0 .43-.048.645-.095v.502c-.286.072-.886.215-1.745.215-1.389 0-1.797-.718-1.797-1.748h-.05c-.737 1.078-1.768 1.748-3.398 1.748-1.65 0-2.87-1.15-2.87-2.707 0-3.474 4.501-3.474 6.318-3.643v-.908c0-1.678-.025-3.45-2.034-3.45-1.484 0-1.675.623-1.675 1.391 0 .982-.717 1.246-1.125 1.246-.647 0-1.148-.432-1.148-1.08 0-1.557 2.321-2.347 3.973-2.347zm2.009 5.94c-1.125.025-4.189.241-4.189 2.47 0 1.245.817 2.083 1.63 2.083 1.556 0 2.559-1.51 2.559-3.139v-1.414zm4.07 4.912c1.004 0 1.817-.215 1.817-1.772v-6.541c0-1.437-1.125-1.51-1.817-1.558v-.407l3.685-.574v3.162h.049c.334-.887 1.409-3.162 3.779-3.162 2.539 0 2.778 1.388 2.778 3.617v5.463c0 1.558.814 1.772 1.817 1.772v.409h-5.504v-.409c1.004 0 1.82-.215 1.82-1.772v-4.936c0-2.061-.022-2.995-1.606-2.995-1.409 0-3.134 2.706-3.134 4.984v2.948c0 1.558.811 1.772 1.82 1.772v.409h-5.504v-.409zm30.345-8.534c0 7.88-4.829 8.913-9.01 8.942l-6.487.001v-.54c1.454 0 2.343-.189 2.343-2.208V29.887c0-2.021-.888-2.21-2.343-2.21v-.537h6.297c4.465 0 9.2.969 9.2 8.994zm-9.2-7.945c-1.346 0-1.562.163-1.562 2.263v11.311c0 1.966.216 2.263 1.562 2.263 4.627 0 6.537-2.478 6.537-7.892 0-4.957-1.425-7.945-6.537-7.945zm11.498 2.056c0-.767.597-1.366 1.362-1.366s1.365.598 1.365 1.366a1.35 1.35 0 0 1-1.365 1.366c-.764 0-1.362-.598-1.362-1.366h0zm-1.319 14.423c1.008 0 1.822-.215 1.822-1.772v-6.541c0-1.438-1.101-1.51-1.822-1.558v-.407l3.689-.574v9.08c0 1.557.812 1.772 1.817 1.772v.409h-5.506v-.409zm10.388-10.852c2.153 0 4.095 1.197 4.095 3.976v.527h-6.965c0 2.012.979 6.11 4.979 6.11.548 0 1.195-.072 1.675-.312v.765c-.575.217-1.389.432-2.85.432-3.709 0-5.79-2.037-5.79-6.062 0-3.499 1.412-5.437 4.857-5.437zm-.309.79c-1.82 0-2.562 2.036-2.562 2.922h4.835c0-1.268-.433-2.922-2.273-2.922zm15.22-2.756c.672 0 1.15.431 1.15 1.148 0 .649-.408 1.08-1.125 1.08-.623 0-.767-.336-1.078-.336-.526 0-.739.696-.861 1.078.286.311 1.075 1.198 1.075 2.876 0 2.419-1.506 3.785-4.376 3.785-.959 0-1.655-.121-2.178-.36-.146.192-.431.551-.431 1.078 0 .959 1.195.959 1.962.959l3.029.001c1.229.013 3.6.195 3.6 2.706 0 2.731-2.681 4.263-5.865 4.263-2.345 0-4.785-.887-4.785-3.043 0-1.485 1.101-2.132 1.867-2.517-.409-.238-1.031-.693-1.031-1.7 0-.887.767-1.796 1.031-2.085-.552-.455-1.389-1.172-1.389-3.209 0-3.09 2.248-3.76 4.521-3.76 1.103 0 1.7.191 2.469.597.381-.908.954-2.562 2.415-2.562zm10.602 17.355v.608h-10.166a5.49 5.49 0 0 0 .712-.608h9.453zm-13.595-4.346h-4.187c-.48.359-1.148.766-1.148 1.844 0 1.414 1.265 2.636 3.348 2.636 2.178 0 4.189-1.126 4.189-2.851 0-1.223-1.003-1.63-2.203-1.63zm8.783-11.044c3.066 0 5.004 2.154 5.004 5.75s-1.937 5.749-5.004 5.749-4.999-2.156-4.999-5.749 1.937-5.75 4.999-5.75zm0 .79c-2.392 0-2.87 2.97-2.87 4.96s.478 4.958 2.87 4.958 2.875-2.969 2.875-4.958-.48-4.96-2.875-4.96zm-10.961 0c-1.892 0-2.248 1.39-2.248 2.78 0 1.82.597 3.305 2.32 3.305 2.011 0 2.275-1.58 2.275-2.852 0-1.795-.623-3.233-2.347-3.233zm-5.935 14.6H.158v.608h103.364a3.89 3.89 0 0 1-.58-.608" fill="#6c7285" fill-rule="evenodd"/></svg>