<svg xmlns="http://www.w3.org/2000/svg" width="125" height="77" xmlns:v="https://vecta.io/nano"><path d="M13.272 54.24c1.706 0 3.245 1.05 3.245 3.345s-1.541 3.346-3.245 3.346-3.245-1.05-3.245-3.346 1.539-3.345 3.245-3.345zM1.644 52.185l1.28 5.803.022.134.051.332h.025l1.193-6.269h1.893l1.188 5.759.026.143.026.144.04.224h.025l.051-.287.023-.122 1.322-5.859h1.817L8.21 60.766H6.509l-1.325-6.691h-.027l-1.325 6.691H2.155l-2.434-8.581h1.923zm11.628 3.465c-1.3 0-1.528 1.121-1.528 1.935s.238 1.935 1.528 1.935 1.528-1.123 1.528-1.935l-.001-.105c-.02-.8-.282-1.831-1.527-1.831zm3.913-1.243h1.601v1.098h.022c.346-.644.727-1.253 1.744-1.253a2.96 2.96 0 0 1 .311.025v1.697a3.05 3.05 0 0 0-.476-.027c-1.3 0-1.538.812-1.538 1.518v3.311h-1.663v-6.369m4.478-2.222h1.671v8.581h-1.671v-8.581m8.583 0v8.608h-1.622v-.812h-.027c-.39.632-1.095 1-1.837.956-1.885 0-2.675-1.679-2.675-3.421 0-2.193 1.244-3.275 2.64-3.275a2.04 2.04 0 0 1 1.839.993h.025v-3.047h1.657zm-3.02 3.5c-1.062 0-1.42.948-1.42 1.949l.002.108c.029.753.362 1.814 1.372 1.814 1.06 0 1.476-.889 1.476-1.827 0-1.015-.284-2.044-1.431-2.044zm6.304-3.5h1.909l1.353 6.269h.024l1.193-6.269h1.893l1.279 6.269h.024l1.396-6.269h1.823l-2.407 8.581h-1.72l-1.325-6.691h-.025l-1.324 6.691H35.95l-2.42-8.581m13.574 1.47h-1.674v-1.567h1.674v1.567zm0 7.111h-1.674v-6.358h1.674v6.358m6.907-8.581v8.594h-1.622v-.811h-.022c-.388.637-1.094 1.009-1.839.969-1.885 0-2.675-1.679-2.675-3.421 0-2.193 1.244-3.275 2.642-3.275.748-.032 1.453.349 1.837.993h.024v-3.047h1.655zm-3.028 3.5c-1.065 0-1.422.948-1.422 1.949.003.752.311 1.922 1.374 1.922s1.482-.889 1.482-1.827c0-1.015-.29-2.044-1.433-2.044zm6.852-1.473c1.241 0 2.975.596 2.975 3.5v.311h-4.359c.049.484.14 1.567 1.492 1.567a1.08 1.08 0 0 0 1.082-.693v-.024h1.722c-.44 1.527-1.711 2.031-2.793 2.031-1.788 0-3.162-.862-3.162-3.479 0-.777.263-3.213 3.042-3.213zm-.01 1.375c-.789 0-1.206.504-1.303 1.34h2.593c-.098-1.026-.749-1.34-1.29-1.34zm14.622-1.375c1.241 0 2.974.596 2.974 3.5v.311h-4.353c.052.484.14 1.567 1.492 1.567.473.031.912-.25 1.082-.693l.005-.024h1.712c-.441 1.527-1.712 2.031-2.793 2.031-1.788 0-3.162-.862-3.162-3.479 0-.777.263-3.213 3.043-3.213zm-2.283-2.027v1.516h-2.587v7.065h-1.791v-7.065h-2.59v-1.516h6.968zm2.277 3.402c-.787 0-1.206.504-1.301 1.34h2.59c-.097-1.026-.749-1.34-1.289-1.34zm9.089 2.856c-.06.658-.57 2.488-2.899 2.488-2.388 0-2.937-1.827-2.937-3.168 0-2.057.895-3.519 3.045-3.519 1 0 2.647.454 2.817 2.436h-1.695c-.071-.417-.335-1.083-1.112-1.029-1.049 0-1.325 1.054-1.325 1.841 0 .693.027 2.066 1.293 2.066a1.17 1.17 0 0 0 1.13-1.118h1.693m6.42 2.323h-1.671v-3.857c0-.465-.024-1.256-1.081-1.256-.739 0-1.315.503-1.315 1.47v3.646H82.22v-8.581h1.676v3.047h.008c.217-.525.941-.993 1.839-.993 1.252 0 2.207.731 2.207 2.13v4.388m6.834.005h-1.685v-3.857c0-.465-.024-1.256-1.082-1.256-.744 0-1.313.503-1.313 1.47v3.646h-1.66v-6.358h1.6v.939h.022c.369-.706 1.113-1.135 1.91-1.098 1.252 0 2.209.731 2.209 2.127v4.388m3.953-6.523c1.704 0 3.245 1.05 3.245 3.345s-1.544 3.346-3.245 3.346-3.245-1.05-3.245-3.346 1.542-3.345 3.245-3.345zm-.002 1.407c-1.29 0-1.528 1.124-1.528 1.938s.238 1.935 1.528 1.935 1.527-1.123 1.527-1.935-.238-1.938-1.527-1.938zm3.983-3.462h1.671v8.581h-1.671v-8.581m5.676 2.055c1.704 0 3.245 1.05 3.245 3.345s-1.541 3.346-3.245 3.346-3.245-1.05-3.245-3.346 1.542-3.345 3.245-3.345zm-.002 1.407c-1.291 0-1.529 1.124-1.529 1.938s.238 1.935 1.529 1.935 1.527-1.123 1.527-1.935-.238-1.938-1.527-1.938zm6.503-1.413a1.91 1.91 0 0 1 1.863 1.112h.038v-.939h1.601v6.028c0 1.101-.081 2.929-3.212 2.929-1.317 0-2.699-.558-2.772-1.911h1.817c.071.333.203.644 1.169.644.895 0 1.322-.428 1.322-1.456v-.766l-.022-.024a1.73 1.73 0 0 1-1.695.942c-1.538 0-2.745-1.091-2.745-3.283s1.238-3.275 2.637-3.275zm.383 1.451c-.619 0-1.311.455-1.311 1.938 0 .812.333 1.768 1.325 1.768 1.133 0 1.42-.967 1.42-1.841 0-1.029-.492-1.865-1.433-1.865zm7.818 4.973c-.787 2.351-1 2.663-2.461 2.663-.225 0-.514 0-.752-.024v-1.354c.103.016.208.023.314.023.608 0 .941-.082 1.1-.956l-2.341-6.605h1.871l1.353 4.68h.024l1.304-4.68h1.771l-2.193 6.248m-49.437-40.58l4.4 5.248-7.434 6.245 11.544 13.797-9.354.011-7.737-9.149-7.636 6.415-4.403-5.251 20.62-17.316zm-7.812-6.437l10.695.019-25.384 21.412-18.062-21.423h9.224l9.676 11.645 2.301-1.932-8.082-9.712h9.399l4.225 5.056 6.009-5.064zm26.079.008L80.019 23.67l-4.4-5.254 5.538-4.772h10.758z" fill="#6c7285"/></svg>